<?xml version="1.0" encoding="UTF-8" standalone="no"?>
<!-- Created with Inkscape (http://www.inkscape.org/) -->

<svg
   version="1.1"
   id="svg2"
   width="375.70706"
   height="242.56937"
   viewBox="0 0 375.70706 242.56936"
   xmlns="http://www.w3.org/2000/svg"
   xmlns:svg="http://www.w3.org/2000/svg">
  <defs
     id="defs6" />
  <g
     id="g8"
     transform="matrix(1.0722852,0,0,-1.0722852,-28.713345,337.84757)">
    <g
       id="g10"
       transform="scale(0.1)">
      <path
         d="m 2233.23,1941.33 c -40.62,-106.9 -104.82,-206.22 -186.33,-285.34 -95.1,-92.29 -221.36,-163.06 -356.81,-163.06 -68.66,0 -134.59,18.59 -191.58,57.28 -7.13,4.84 -14.05,9.94 -20.74,15.28 14.73,-210.93 -95.16,-408.24 -327.6,-442.81 -86.26,-12.82 -180.924,1.09 -267.381,9.29 -61.437,5.83 -204.437,21.2 -253.961,-20.83 -19.055,-16.19 -24.176,-42.92 -25.57,-66.64 l -5.574,-94.437 c -1.918,-32.321 -26.903,-58.204 -59.153,-61.223 -32.09,-3.008 -61.664,17.902 -69.504,49.176 l -23.011,91.784 c -22.164,88.3 -23.481,180.68 17.156,264.06 19.855,40.74 47.91,75.42 81.566,104.68 -33.886,25.48 -64.922,54.53 -92.781,86.69 -255.543,294.88 -215.496,797.75 -59.621,1130.31 65.156,139 159.84,268.41 276.875,368.19 94.617,80.62 216.004,151.04 341.549,164.01 l 25.24,2.62 c 23.66,2.45 45.89,-7.54 59.79,-26.87 13.88,-19.3 16.28,-43.58 6.42,-65.24 l -10.52,-23.07 c -44.78,-98.37 -54.85,-194.34 -24.95,-298.69 25.54,-89.16 75.84,-172.07 126.85,-248.81 47.8,-71.87 99.44,-141.52 143.94,-215.48 6.46,151.96 12.91,303.93 19.36,455.91 l 0.43,9.82 c 1.14,27.02 18.13,49.93 43.65,58.89 l 9.28,3.26 c 95.04,33.38 190.1,66.74 285.13,100.13 l 20.21,7.08 c 20.7,7.29 42.87,3.94 60.53,-9.11 17.63,-13.05 27.33,-33.28 26.43,-55.2 l -11.13,-274 c 48.39,23.61 100.91,37.95 155.34,37.95 71.98,0 140.69,-20.07 198.1,-64.22 42.7,-32.8 74.27,-74.21 96.41,-120.98 40.78,102.21 103.17,197.03 181.61,273.18 95.09,92.28 221.38,163.06 356.81,163.06 68.69,0 134.63,-18.57 191.61,-57.27 37.09,-25.2 67.9,-57.15 92.49,-93.72 37.25,93.92 90.53,182.84 159.32,256.25 74.61,79.63 177.91,150.05 290.39,153.83 38.96,1.31 77.45,-6.71 111.98,-25.02 123.52,-65.49 141.31,-187.43 146.02,-314.62 l 0.02,-0.38 0.01,-0.39 c 0.21,-18.52 -0.32,-37.04 -1.47,-55.55 l -12.79,-476.15 c -0.66,-24.69 -14.49,-46.17 -36.71,-57 l -307.12,-149.63 0.08,11.07 c -44.36,-26.07 -94.2,-43.12 -146.07,-39.2 -86.77,6.58 -152.48,63.26 -195.49,134.18 -40.46,-90.28 -97.92,-173.83 -168.6,-242.43 -95.09,-92.29 -221.36,-163.06 -356.8,-163.06 -68.67,0 -134.61,18.58 -191.6,57.28 -54.03,36.67 -94.31,87.41 -121.73,145.17 z M 741.711,1705.58 c 27.551,0 61.82,34.98 77.758,54.89 38.265,47.83 63.808,110.62 75.656,170.44 8.984,45.45 11.906,98.45 -0.836,143.42 -4.176,14.78 -15.027,42.85 -30.367,49.49 -2.41,1.03 -4.906,1.4 -7.524,1.4 -27.558,0 -61.835,-34.98 -77.757,-54.88 -38.266,-47.84 -63.817,-110.63 -75.657,-170.45 -9.007,-45.46 -11.918,-98.44 0.832,-143.41 4.168,-14.78 15.02,-42.86 30.375,-49.48 2.407,-1.05 4.903,-1.42 7.52,-1.42 z m 2685.609,906.91 c -9.87,-20.68 -17.19,-43.08 -22.01,-64.57 -0.69,-3.14 -1.36,-6.35 -1.99,-9.59 3.52,8.61 6.79,17.33 9.83,26.01 3.43,9.81 9.63,29.15 14.17,48.15 z M 1851.25,2136.02 c -13.05,-3.66 -31.39,-19.43 -38.89,-27.03 -24.5,-24.79 -43.33,-58.21 -53.44,-91.49 -5.95,-19.57 -10.33,-44.07 -6.58,-64.39 0.33,-1.84 1.08,-4.95 1.99,-7.68 13.07,3.66 31.4,19.43 38.9,27.02 24.51,24.8 43.34,58.23 53.43,91.5 5.95,19.57 10.33,44.07 6.59,64.4 -0.34,1.82 -1.06,4.93 -2,7.67 z m 863.97,259.71 c -11.48,-5.1 -27.34,-19.58 -32.98,-25.57 -24.27,-25.68 -42.59,-60.18 -52.43,-94.02 -6.08,-20.95 -10.43,-47.13 -6.29,-68.8 0.27,-1.48 0.83,-3.85 1.55,-6.23 11.47,5.12 27.32,19.59 32.97,25.58 24.26,25.69 42.6,60.18 52.43,94.02 6.08,20.95 10.44,47.14 6.3,68.79 -0.27,1.5 -0.84,3.87 -1.55,6.23"
         style="fill:#176fc1;fill-opacity:1;fill-rule:evenodd;stroke:none"
         id="path14" />
      <path
         d="m 2227.07,2331.93 c 35.33,128.21 106.22,249.68 201.47,342.13 89.49,86.85 208.9,154.86 336.57,154.86 62.86,0 123.11,-16.82 175.28,-52.27 51.6,-35.02 89.46,-84.13 114.66,-139.79 35.62,112.33 94.33,220.77 174.66,306.51 69.04,73.66 165.86,141.15 270.16,144.66 34.02,1.14 67.27,-5.67 97.44,-21.66 110.46,-58.56 126.07,-168.68 130.59,-290.05 0.21,-17.97 -0.31,-35.97 -1.46,-53.92 l -12.78,-476.66 c -0.37,-13.89 -7.93,-25.59 -20.4,-31.67 l -264.98,-129.1 0.16,19.8 c -51.62,-40.46 -111.87,-70.26 -173.38,-65.6 -98.52,7.47 -166.04,90.08 -200.63,176.06 -38.62,-109.66 -103.02,-212.01 -185.89,-292.43 -89.49,-86.87 -208.92,-154.87 -336.58,-154.87 -62.85,0 -123.1,16.83 -175.27,52.27 -70.31,47.73 -115.11,121.6 -137.16,202.63 -0.87,3.12 -1.67,6.27 -2.47,9.44 -33.98,-133.11 -106.43,-259.77 -204.97,-355.43 -89.51,-86.85 -208.92,-154.86 -336.58,-154.86 -62.85,0 -123.1,16.83 -175.26,52.26 -32.15,21.82 -58.72,48.78 -80.21,79.2 55,-224.01 -36.58,-464.53 -288.74,-502.03 -81.04,-12.04 -178.593,1.7 -260.347,9.48 -71.746,6.81 -216.445,22.52 -275.512,-27.6 -25.695,-21.8 -33.871,-54.65 -35.781,-87.07 l -5.566,-94.435 c -1.071,-18.039 -14.887,-32.34 -32.856,-34.031 -17.992,-1.676 -34.23,9.805 -38.621,27.336 l -23.008,91.76 c -39.488,157.35 2.211,280.26 119.278,363 -44.309,28.85 -84.332,63.74 -119.543,104.39 -247.801,285.92 -205.91,777.62 -55.293,1098.97 63.359,135.13 155.59,261.38 269.418,358.4 89.836,76.57 206.25,144.89 325.699,157.24 l 25.212,2.61 c 13.32,1.37 25.42,-4.06 33.22,-14.94 7.81,-10.84 9.13,-24.06 3.57,-36.22 l -10.51,-23.08 c -47.7,-104.83 -58.207,-207.78 -26.43,-318.73 26.39,-92.11 77.89,-177.61 130.58,-256.88 62.81,-94.45 141.67,-197.01 192.67,-306.34 7.94,187.2 15.91,374.4 23.86,561.59 l 0.42,9.84 c 0.64,15.13 9.93,27.69 24.24,32.72 l 9.3,3.25 c 95.02,33.38 190.08,66.75 285.12,100.12 l 20.19,7.1 c 11.71,4.11 23.65,2.32 33.64,-5.07 9.98,-7.36 15.19,-18.27 14.68,-30.66 l -13.24,-326.07 c 56.06,36.06 119.83,59.79 186.47,59.79 65.57,0 128.09,-17.95 180.42,-58.19 61.81,-47.51 97.3,-114.35 114.49,-187.76 z M 727.121,1676.53 c 38.633,0 78.078,37.85 100.426,65.79 41.211,51.49 68.746,118.61 81.476,182.95 9.887,49.94 12.649,107.51 -1.363,156.98 -6.984,24.65 -21.586,57.34 -46.816,68.24 -6.067,2.62 -12.426,3.8 -19.035,3.8 -38.625,0 -78.09,-37.87 -100.434,-65.79 -41.176,-51.48 -68.734,-118.63 -81.469,-182.97 -9.883,-49.95 -12.648,-107.5 1.367,-156.96 6.981,-24.65 21.59,-57.36 46.817,-68.26 6.07,-2.62 12.43,-3.78 19.031,-3.78 z M 3446.14,2662.1 c -5.67,45.74 -21.41,24.51 -40.75,-3.98 -20.63,-30.36 -35.01,-68.16 -43,-103.84 -6.08,-27.16 -9.58,-57.84 -6.14,-85.59 12.66,-77.52 101.91,137.06 89.89,193.41 z M 1734.75,1915.61 c 22.81,0 49.46,21.15 64.56,36.43 27.79,28.14 49.1,65.72 60.58,103.46 7.32,24.17 11.98,52.98 7.33,78.12 -1.73,9.43 -6.15,24.09 -14.9,29.61 -3.2,2.03 -6.91,2.6 -10.64,2.6 -22.81,0 -49.49,-21.14 -64.56,-36.4 -27.81,-28.16 -49.12,-65.72 -60.59,-103.48 -7.34,-24.15 -11.98,-53 -7.34,-78.12 1.74,-9.43 6.15,-24.08 14.9,-29.61 3.21,-2.01 6.92,-2.61 10.66,-2.61 z m 868.8,254.61 c 21.39,0 47.32,22.01 61.03,36.53 27.42,29.03 48.08,67.63 59.2,105.86 7.4,25.48 11.99,55.97 6.94,82.35 -1.7,8.97 -6.37,24.72 -15,29.79 -2.49,1.44 -5.31,1.87 -8.17,1.87 -21.38,0 -47.32,-22 -61.02,-36.51 -27.42,-29.04 -48.09,-67.63 -59.2,-105.86 -7.4,-25.49 -11.99,-55.97 -6.95,-82.34 1.72,-8.99 6.37,-24.75 15,-29.8 2.5,-1.46 5.32,-1.89 8.17,-1.89"
         style="fill:#ffffff;fill-opacity:1;fill-rule:evenodd;stroke:none"
         id="path16" />
      <path
         d="m 684.492,1400.71 c -407.347,176.34 -424.691,774.96 -234.406,1180.91 131.512,280.58 367.355,467.33 554.314,486.66 -206.33,-453.21 299.91,-731.6 341.85,-1070.59 22.81,-184.39 -40,-385.17 -248.99,-537.82 192.67,29.84 249.55,108.36 268.31,200.54 55.05,-191.01 -5.39,-423.55 -241.75,-458.71 -200.386,-29.79 -598.394,127.7 -614.902,-152.47 -38.949,155.23 6.691,277.42 175.574,351.48 z m 2574.398,689.16 c 66.5,-5.05 148.15,48.97 221.33,137.07 l -0.47,-60.34 183.32,89.31 12.58,468.8 c 1.15,17.89 1.6,35.24 1.39,52 l 0.13,4.48 -0.16,-0.41 c -3.07,157.11 -66.03,260.12 -175.44,256.44 -151.98,-5.11 -337.73,-186.95 -408.87,-452.72 -71.11,-265.77 32.02,-484.47 166.19,-494.63 z m 102.2,296.49 c 48.83,0 106.38,80.17 128.52,179.02 22.14,98.86 0.51,179.03 -48.32,179.03 -48.83,0 -106.38,-80.17 -128.51,-179.03 -22.15,-98.85 -0.51,-179.02 48.31,-179.02 z M 1675.51,1572.84 c 208.53,0 429.85,214.78 494.19,479.63 64.38,264.88 -28.99,474.57 -237.54,474.57 -83.72,0 -170.98,-46.7 -241.88,-120.46 l 16.99,418.24 c -95.05,-33.37 -190.09,-66.74 -285.14,-100.11 -9.43,-222.01 -18.87,-444.03 -28.29,-666.05 -0.54,-59.39 -0.81,-118.09 3.27,-165.58 6.41,-186.53 113.87,-320.24 278.4,-320.24 z m 59.24,291.93 c 66.43,0 144.26,78.8 173.79,175.96 29.51,97.16 -0.43,175.97 -66.86,175.97 -66.46,0 -144.28,-78.81 -173.79,-175.97 -29.53,-97.16 0.42,-175.96 66.86,-175.96 z m 797.21,-46 c 208.55,0 429.86,214.79 494.21,479.65 64.37,264.88 -52.53,479.66 -261.06,479.66 -208.54,0 -429.85,-214.78 -494.21,-479.66 -64.36,-264.86 52.55,-479.65 261.06,-479.65 z m 71.59,300.63 c 64.61,0 140.33,80.17 169.05,179.02 28.71,98.87 -0.4,179.03 -65.05,179.03 -64.61,0 -140.32,-80.16 -169.04,-179.03 -28.72,-98.85 0.41,-179.02 65.04,-179.02 z M 727.121,1625.7 c 96.313,0 200.109,129.73 231.781,289.7 31.661,159.98 -20.769,289.71 -117.093,289.71 -96.313,0 -200.102,-129.73 -231.778,-289.71 -31.672,-159.97 20.778,-289.7 117.09,-289.7"
         style="fill:#ed1c24;fill-opacity:1;fill-rule:evenodd;stroke:none"
         id="path18" />
    </g>
  </g>
</svg>
