<?xml version="1.0" encoding="UTF-8" standalone="no"?>
<svg
   version="1.1"
   width="4.326643in"
   height="3.7422867in"
   viewBox="0 0 311.51892 269.44497"
   id="svg24"
   xmlns="http://www.w3.org/2000/svg"
   xmlns:svg="http://www.w3.org/2000/svg">
  <defs
     id="defs24" />
  <g
     id="Layer1000"
     transform="matrix(0.17556439,0,0,0.17556439,691.84682,-15.824035)">
    <defs
       id="defs2">
      <radialGradient
         id="grad1"
         cx="-3378.6802"
         cy="711.69702"
         r="1214.8784"
         gradientTransform="scale(0.99198918,1.0080755)"
         fx="-3378.6802"
         fy="711.69702"
         gradientUnits="userSpaceOnUse">
        <stop
           offset="0%"
           stop-color="#009ee0"
           stop-opacity="1.0000"
           id="stop1" />
        <stop
           offset="100%"
           stop-color="#0068b1"
           stop-opacity="1.0000"
           id="stop2" />
      </radialGradient>
    </defs>
    <path
       d="m -3773.2895,292.8535 c 469.5599,-399.7806 1421.6507,215.5771 962.6547,901.2087 -320.4615,377.8576 -1036.4794,218.6963 -1080.4263,-535.0927 -15.1489,-143.8016 30.5093,-263.2799 117.7716,-366.116 z"
       style="fill:url(#grad1)"
       id="path2" />
    <defs
       id="defs4">
      <radialGradient
         id="grad2"
         cx="-3278.7534"
         cy="702.33417"
         r="1106.9247"
         gradientTransform="scale(1.0443644,0.95752021)"
         fx="-3278.7534"
         fy="702.33417"
         gradientUnits="userSpaceOnUse">
        <stop
           offset="0%"
           stop-color="#9edbf4"
           stop-opacity="1.0000"
           id="stop3" />
        <stop
           offset="100%"
           stop-color="#008bd0"
           stop-opacity="1.0000"
           id="stop4" />
      </radialGradient>
    </defs>
    <path
       d="m -3773.2113,352.0328 c 469.5599,-356.8866 1419.0905,218.0496 962.6547,804.5146 -340.9435,367.951 -1036.4794,195.2316 -1080.4263,-477.6805 -15.1489,-128.3726 30.5093,-235.0317 117.7716,-326.8341 z"
       style="fill:url(#grad2)"
       id="path4" />
    <defs
       id="defs6">
      <radialGradient
         id="grad3"
         cx="-2162.4604"
         cy="843.57007"
         r="347.45035"
         gradientTransform="scale(1.0911999,0.91642239)"
         fx="-2162.4604"
         fy="843.57007"
         gradientUnits="userSpaceOnUse">
        <stop
           offset="0%"
           stop-color="#008bd0"
           stop-opacity="1.0000"
           id="stop5" />
        <stop
           offset="100%"
           stop-color="#102a83"
           stop-opacity="1.0000"
           id="stop6" />
      </radialGradient>
    </defs>
    <path
       d="m -2454.7598,635.9272 c 264.0399,-87.4332 363.6737,150.992 227.8624,261.1457 -133.9866,92.1691 -373.3698,11.5212 -307.2302,-168.9766 13.6548,-41.9241 38.4044,-74.141 79.3678,-92.1691 z"
       style="fill:url(#grad3)"
       id="path6" />
    <defs
       id="defs8">
      <radialGradient
         id="grad4"
         cx="-2101.3572"
         cy="855.06042"
         r="306.8717"
         gradientTransform="scale(1.1283274,0.8862676)"
         fx="-2101.3572"
         fy="855.06042"
         gradientUnits="userSpaceOnUse">
        <stop
           offset="0%"
           stop-color="#9edbf4"
           stop-opacity="1.0000"
           id="stop7" />
        <stop
           offset="100%"
           stop-color="#009ee0"
           stop-opacity="1.0000"
           id="stop8" />
      </radialGradient>
    </defs>
    <path
       d="m -2445.7359,650.194 c 241.1373,-74.6809 332.129,128.9695 208.0979,223.0572 -122.3648,78.726 -340.9841,9.8407 -280.5814,-144.3311 12.4704,-35.8094 35.0732,-63.3274 72.4835,-78.7261 z"
       style="fill:url(#grad4)"
       id="path8" />
    <defs
       id="defs10">
      <radialGradient
         id="grad5"
         cx="-3008.6963"
         cy="207.54321"
         r="262.36475"
         gradientTransform="scale(0.90542529,1.1044534)"
         fx="-3008.6963"
         fy="207.54321"
         gradientUnits="userSpaceOnUse">
        <stop
           offset="0%"
           stop-color="#009ee0"
           stop-opacity="1.0000"
           id="stop9" />
        <stop
           offset="100%"
           stop-color="#102a83"
           stop-opacity="1.0000"
           id="stop10" />
      </radialGradient>
    </defs>
    <path
       d="m -2838.1575,159.0803 c 23.9216,-104.5508 208.8462,-77.4533 229.7826,-3.2003 27.3223,85.2372 -21.9657,207.4884 -79.3678,224.022 -11.3273,-3.9257 -64.2198,13.868 -95.3694,-47.3646 l -28.1628,-69.1268 c -9.8594,-24.3204 -27.5227,-38.8307 -26.8826,-104.3303 z"
       style="fill:url(#grad5)"
       id="path10" />
    <defs
       id="defs12">
      <radialGradient
         id="grad6"
         cx="-3026.7776"
         cy="183.46968"
         r="230.0079"
         gradientTransform="scale(0.90542513,1.1044536)"
         fx="-3026.7776"
         fy="183.46968"
         gradientUnits="userSpaceOnUse">
        <stop
           offset="0%"
           stop-color="#9edbf4"
           stop-opacity="1.0000"
           id="stop11" />
        <stop
           offset="100%"
           stop-color="#008bd0"
           stop-opacity="1.0000"
           id="stop12" />
      </radialGradient>
    </defs>
    <path
       d="m -2821.7251,164.0056 c 20.9714,-91.6568 183.0896,-67.9012 201.444,-2.8056 23.9527,74.7251 -19.2567,181.8993 -69.5795,196.3939 -9.9303,-3.4416 -56.2997,12.1576 -83.6077,-41.5233 l -24.6896,-60.6016 c -8.6435,-21.321 -24.1284,-34.0417 -23.5672,-91.4634 z"
       style="fill:url(#grad6)"
       id="path12" />
    <defs
       id="defs14">
      <radialGradient
         id="grad7"
         cx="-4063.4404"
         cy="1356.5159"
         r="297.1088"
         gradientTransform="scale(0.94089986,1.0628124)"
         fx="-4063.4404"
         fy="1356.5159"
         gradientUnits="userSpaceOnUse">
        <stop
           offset="0%"
           stop-color="#008bd0"
           stop-opacity="1.0000"
           id="stop13" />
        <stop
           offset="100%"
           stop-color="#102a83"
           stop-opacity="1.0000"
           id="stop14" />
      </radialGradient>
    </defs>
    <path
       d="m -3912.8233,1348.9574 c 66.3528,-62.5138 136.7598,-48.0056 209.9407,19.2019 62.1935,60.6986 56.8596,191.9115 -29.4429,244.5041 -75.1136,45.6752 -176.2407,-43.9373 -206.1003,-151.0549 -6.827,-34.1371 1.7073,-71.6876 25.6025,-112.6511 z"
       style="fill:url(#grad7)"
       id="path14" />
    <defs
       id="defs16">
      <radialGradient
         id="grad8"
         cx="-4056.7095"
         cy="1359.6329"
         r="157.59921"
         gradientTransform="scale(0.94089981,1.0628124)"
         fx="-4056.7095"
         fy="1359.6329"
         gradientUnits="userSpaceOnUse">
        <stop
           offset="0%"
           stop-color="#9edbf4"
           stop-opacity="1.0000"
           id="stop15" />
        <stop
           offset="100%"
           stop-color="#009ee0"
           stop-opacity="1.0000"
           id="stop16" />
      </radialGradient>
    </defs>
    <path
       d="m -3901.0533,1357.441 c 58.6607,-55.2667 120.9054,-42.4404 185.6026,16.9758 54.9835,53.6619 50.2679,169.6635 -26.0296,216.1591 -66.4058,40.3801 -155.8094,-38.8437 -182.2074,-133.5433 -6.0355,-30.1796 1.5094,-63.377 22.6344,-99.5916 z"
       style="fill:url(#grad8)"
       id="path16" />
    <path
       d="m -3770.7293,601.3638 c 21.2511,-14.7503 51.2819,-23.2304 84.4883,-29.4429 62.3858,38.5592 104.938,111.1204 143.3741,190.7388 46.8227,-84.8208 97.3834,-164.4074 161.2959,-225.3022 l 76.8076,-14.0813 c 23.9989,14.5077 -306.1531,174.9498 -259.8656,604.2194 5.2296,20.9659 -3.7321,22.5652 -17.9218,15.3615 -32.3257,-28.9562 -54.0881,-129.1246 -30.723,-353.3147 -72.6097,-156.0663 -175.0317,-165.028 -157.4555,-188.1786 z"
       style="fill:#102a83;fill-rule:evenodd;stroke:#102a83;stroke-width:0.216;stroke-linecap:butt;stroke-linejoin:miter;stroke-dasharray:none"
       id="path17" />
    <path
       d="m -3746.01,592.6433 c 21.251,-14.7503 51.2818,-23.2304 84.4883,-29.4429 62.3857,38.5592 104.938,111.1204 143.3741,190.7388 46.8227,-84.8208 97.3834,-164.4075 161.2959,-225.3022 l 76.8075,-14.0813 c 23.999,14.5077 -306.1531,174.9497 -259.8656,604.2194 5.2297,20.9659 -3.7321,22.5652 -17.9217,15.3615 -32.3258,-28.9562 -54.0882,-129.1246 -30.7231,-353.3147 -72.6097,-156.0663 -175.0317,-165.028 -157.4554,-188.1786 z"
       style="fill:#ffffff;fill-rule:evenodd;stroke:#ffffff;stroke-width:0.216;stroke-linecap:butt;stroke-linejoin:miter;stroke-dasharray:none"
       id="path18" />
    <path
       d="m -3380.2909,692.2528 c 14.563,-18.8317 35.6851,-18.4054 30.7231,-3.8404 l -24.3213,91.6923 c 363.2746,-292.434 216.538,262.7201 -75.5286,216.8181 l -26.8826,119.0517 c -5.9735,11.5211 -13.2276,11.5211 -21.7622,0 -33.1364,-120.092 -0.9997,-259.2525 117.7716,-423.7217 z m 119.0518,64.0063 c -83.1014,-1.6002 -161.0825,110.4109 -175.3773,192.0189 93.8863,27.2372 176.3121,-11.5523 184.3381,-151.0549 1.5256,-18.862 0.6214,-34.92 -8.9608,-40.964 z"
       style="fill:#102a83;fill-rule:evenodd;stroke:#102a83;stroke-width:0.216;stroke-linecap:butt;stroke-linejoin:miter;stroke-dasharray:none"
       id="path19" />
    <path
       d="m -3355.5716,683.5323 c 14.563,-18.8317 35.685,-18.4054 30.723,-3.8404 l -24.3213,91.6923 c 363.2746,-292.434 216.5381,262.7201 -75.5285,216.8181 l -26.8827,119.0517 c -5.9734,11.5211 -13.2276,11.5211 -21.7621,0 -33.1365,-120.092 -0.9998,-259.2525 117.7716,-423.7217 z m 119.0517,64.0063 c -83.1013,-1.6002 -161.0824,110.4108 -175.3773,192.0189 93.8863,27.2372 176.3122,-11.5523 184.3382,-151.0549 1.5256,-18.862 0.6213,-34.92 -8.9609,-40.964 z"
       style="fill:#ffffff;fill-rule:evenodd;stroke:#ffffff;stroke-width:0.216;stroke-linecap:butt;stroke-linejoin:miter;stroke-dasharray:none"
       id="path20" />
    <path
       d="m -3061.5395,833.0666 c 61.2326,-1.0666 235.7564,-69.3399 212.5009,-135.6933 -37.9771,-62.9393 -256.2826,20.7332 -289.779,131.2506 -45.074,103.0374 -31.4756,167.671 38.8743,155.4976 88.5399,-7.3582 176.2518,-61.9322 226.5823,-124.1722 3.276,-6.8196 -4.085,-11.9736 -11.5211,-7.0407 -83.3698,65.6099 -148.337,94.413 -180.4978,57.6057 -9.2832,-22.9354 -5.6554,-49.3915 3.8404,-77.4477 z m 11.5211,-32.6432 c 91.1937,-174.8627 208.9894,-21.5407 0,0 z"
       style="fill:#102a83;fill-rule:evenodd;stroke:#102a83;stroke-width:0.216;stroke-linecap:butt;stroke-linejoin:miter;stroke-dasharray:none"
       id="path21" />
    <path
       d="m -3036.8203,824.3461 c 61.2326,-1.0666 235.7564,-69.3399 212.501,-135.6933 -37.9772,-62.9394 -256.2826,20.7332 -289.7791,131.2506 -45.0739,103.0374 -31.4756,167.671 38.8744,155.4976 88.5398,-7.3582 176.2517,-61.9322 226.5823,-124.1722 3.276,-6.8196 -4.085,-11.9736 -11.5212,-7.0407 -83.3697,65.6099 -148.337,94.413 -180.4977,57.6057 -9.2832,-22.9354 -5.6554,-49.3915 3.8403,-77.4477 z m 11.5212,-32.6432 c 91.1937,-174.8627 208.9893,-21.5407 0,0 z"
       style="fill:#ffffff;fill-rule:evenodd;stroke:#ffffff;stroke-width:0.216;stroke-linecap:butt;stroke-linejoin:miter;stroke-dasharray:none"
       id="path22" />
    <path
       d="m -2954.3289,654.4891 c -3.348,-3.5249 36.8036,-25.9226 62.4061,-29.763 5.5967,-0.6383 11.8962,-0.3248 19.8419,1.6002 27.5069,10.5585 37.9041,24.4276 48.0048,38.7238 3.2235,4.9584 -0.4014,8.5303 -3.8404,6.0806 -42.8009,-41.4896 -96.421,-24.7768 -116.8957,-16.5968 -7.4894,2.9922 -8.6459,0.663 -9.5167,-0.0448 z"
       style="fill:#102a83;fill-rule:evenodd;stroke:#102a83;stroke-width:0.216;stroke-linecap:butt;stroke-linejoin:miter;stroke-dasharray:none"
       id="path23" />
    <path
       d="m -2929.6097,645.7686 c -3.348,-3.5249 36.8036,-25.9226 62.4061,-29.763 5.5968,-0.6383 11.8962,-0.3248 19.842,1.6002 27.5068,10.5585 37.904,24.4276 48.0047,38.7238 3.2236,4.9584 -0.4014,8.5303 -3.8404,6.0806 -42.8008,-41.4896 -96.421,-24.7768 -116.8956,-16.5968 -7.4895,2.9922 -8.646,0.663 -9.5168,-0.0448 z"
       style="fill:#ffffff;fill-rule:evenodd;stroke:#ffffff;stroke-width:0.216;stroke-linecap:butt;stroke-linejoin:miter;stroke-dasharray:none"
       id="path24" />
  </g>
</svg>
