<?xml version="1.0" encoding="UTF-8" standalone="no"?>
<!-- Uploaded to: SVG Repo, www.svgrepo.com, Generator: SVG Repo Mixer Tools -->

<svg
   fill="#000000"
   width="792.20978"
   height="566.66669"
   viewBox="0 0 23.766293 17.000001"
   version="1.1"
   id="svg2"
   sodipodi:docname="eye-closed.svg"
   inkscape:version="1.3.2 (091e20ef0f, 2023-11-25)"
   xmlns:inkscape="http://www.inkscape.org/namespaces/inkscape"
   xmlns:sodipodi="http://sodipodi.sourceforge.net/DTD/sodipodi-0.dtd"
   xmlns="http://www.w3.org/2000/svg"
   xmlns:svg="http://www.w3.org/2000/svg">
  <defs
     id="defs2" />
  <sodipodi:namedview
     id="namedview2"
     pagecolor="#ffffff"
     bordercolor="#000000"
     borderopacity="0.25"
     inkscape:showpageshadow="2"
     inkscape:pageopacity="0.0"
     inkscape:pagecheckerboard="0"
     inkscape:deskcolor="#d1d1d1"
     inkscape:zoom="1.03625"
     inkscape:cx="396.13993"
     inkscape:cy="283.23281"
     inkscape:window-width="1920"
     inkscape:window-height="1011"
     inkscape:window-x="0"
     inkscape:window-y="0"
     inkscape:window-maximized="1"
     inkscape:current-layer="svg2" />
  <path
     d="M 7.9349358,2.337 A 9.715,9.715 0 0 1 11.882936,1.5 c 2.955,0 5.309,1.315 7.06,2.864 1.756,1.553 2.866,3.307 3.307,4.08 a 0.11,0.11 0 0 1 0.016,0.055 0.122,0.122 0 0 1 -0.017,0.06 16.766,16.766 0 0 1 -1.53,2.218 0.75,0.75 0 1 0 1.163,0.946 18.253,18.253 0 0 0 1.67,-2.42 1.607,1.607 0 0 0 10e-4,-1.602 c -0.485,-0.85 -1.69,-2.757 -3.616,-4.46 -1.93,-1.707 -4.622,-3.241 -8.054,-3.241 -1.695,0 -3.2150002,0.374 -4.5520002,0.963 a 0.75,0.75 0 0 0 0.604,1.373 z"
     id="path1" />
  <path
     fill-rule="evenodd"
     d="m 19.048936,14.487 c -1.838,1.393 -4.233,2.513 -7.166,2.513 -3.4320002,0 -6.1250002,-1.534 -8.0540002,-3.24 -1.926,-1.704 -3.13199998,-3.612 -3.61599998,-4.462 a 1.606,1.606 0 0 1 0.001,-1.6 A 18.305,18.305 0 0 1 3.5309358,3.51 l -2.331,-1.648 a 0.75,0.75 0 1 1 0.866,-1.224 l 20.5000002,14.5 a 0.75,0.75 0 1 1 -0.866,1.224 z M 4.7849358,4.398 c -1.73,1.541 -2.828,3.273 -3.268,4.044 a 0.118,0.118 0 0 0 -0.017,0.059 c 0,0.015 0.003,0.034 0.016,0.055 0.441,0.774 1.551,2.527 3.307,4.08 1.75,1.549 4.105,2.864 7.0600002,2.864 2.334,0 4.29,-0.82 5.874,-1.927 l -3.516,-2.487 A 3.5,3.5 0 0 1 8.6579358,7.137 l -3.873,-2.738 z"
     id="path2" />
</svg>
