<?xml version="1.0" encoding="UTF-8" standalone="no"?>
<!-- Uploaded to: SVG Repo, www.svgrepo.com, Generator: SVG Repo Mixer Tools -->

<svg
   fill="#000000"
   width="792.25214"
   height="566.66669"
   viewBox="0 0 23.767564 17.000001"
   version="1.1"
   id="svg2"
   sodipodi:docname="eye.svg"
   inkscape:version="1.3.2 (091e20ef0f, 2023-11-25)"
   xmlns:inkscape="http://www.inkscape.org/namespaces/inkscape"
   xmlns:sodipodi="http://sodipodi.sourceforge.net/DTD/sodipodi-0.dtd"
   xmlns="http://www.w3.org/2000/svg"
   xmlns:svg="http://www.w3.org/2000/svg">
  <defs
     id="defs2" />
  <sodipodi:namedview
     id="namedview2"
     pagecolor="#ffffff"
     bordercolor="#000000"
     borderopacity="0.25"
     inkscape:showpageshadow="2"
     inkscape:pageopacity="0.0"
     inkscape:pagecheckerboard="0"
     inkscape:deskcolor="#d1d1d1"
     inkscape:zoom="1.00625"
     inkscape:cx="388.07453"
     inkscape:cy="289.68944"
     inkscape:window-width="1920"
     inkscape:window-height="1011"
     inkscape:window-x="0"
     inkscape:window-y="0"
     inkscape:window-maximized="1"
     inkscape:current-layer="svg2" />
  <path
     d="m 15.383782,8.5 a 3.5,3.5 0 1 1 -6.9999995,0 3.5,3.5 0 0 1 6.9999995,0 z"
     id="path1" />
  <path
     fill-rule="evenodd"
     d="M 11.883782,0 C 8.4517825,0 5.7587825,1.534 3.8297825,3.24 c -1.926,1.705 -3.13200002,3.612 -3.61600002,4.462 -0.28504331,0.4945332 -0.28504331,1.1034668 0,1.598 0.484,0.85 1.69000002,2.758 3.61600002,4.46 1.93,1.706 4.622,3.24 8.0539995,3.24 3.432,0 6.125,-1.534 8.054,-3.24 1.926,-1.704 3.132,-3.611 3.616,-4.461 0.299484,-0.4449214 0.285043,-1.1034668 0,-1.598 -0.484,-0.85 -1.69,-2.757 -3.616,-4.46 -1.93,-1.707 -4.622,-3.241 -8.054,-3.241 z M 1.5167825,8.445 c 0.441,-0.774 1.551,-2.528 3.307,-4.08 1.75,-1.551 4.105,-2.865 7.0599995,-2.865 2.955,0 5.309,1.315 7.06,2.864 1.756,1.553 2.866,3.307 3.307,4.08 0.01057,0.01681 0.01644,0.036149 0.017,0.056 -5.55e-4,0.019851 -0.0064,0.03919 -0.017,0.056 -0.441,0.774 -1.551,2.527 -3.307,4.08 -1.75,1.549 -4.105,2.864 -7.06,2.864 -2.9549995,0 -5.3089995,-1.315 -7.0599995,-2.864 -1.756,-1.553 -2.866,-3.306 -3.307,-4.08 -0.010619,-0.016789 -0.016494,-0.036141 -0.017,-0.056 6.839e-4,-0.019517 0.00655,-0.038501 0.017,-0.055 z"
     id="path2"
     sodipodi:nodetypes="sccccsccccsccscccccscccc" />
</svg>
