<?xml version="1.0" encoding="UTF-8" standalone="no"?>
<!-- Uploaded to: SVG Repo, www.svgrepo.com, Generator: SVG Repo Mixer Tools -->

<svg
   fill="#000000"
   width="733.33698"
   height="733.31958"
   viewBox="0 0 22.000109 21.999587"
   version="1.1"
   id="svg2"
   sodipodi:docname="gear.svg"
   inkscape:version="1.3.2 (091e20ef0f, 2023-11-25)"
   xmlns:inkscape="http://www.inkscape.org/namespaces/inkscape"
   xmlns:sodipodi="http://sodipodi.sourceforge.net/DTD/sodipodi-0.dtd"
   xmlns="http://www.w3.org/2000/svg"
   xmlns:svg="http://www.w3.org/2000/svg">
  <defs
     id="defs2" />
  <sodipodi:namedview
     id="namedview2"
     pagecolor="#ffffff"
     bordercolor="#000000"
     borderopacity="0.25"
     inkscape:showpageshadow="2"
     inkscape:pageopacity="0.0"
     inkscape:pagecheckerboard="0"
     inkscape:deskcolor="#d1d1d1"
     inkscape:zoom="1.00625"
     inkscape:cx="366.70807"
     inkscape:cy="366.21118"
     inkscape:window-width="1920"
     inkscape:window-height="1011"
     inkscape:window-x="0"
     inkscape:window-y="0"
     inkscape:window-maximized="1"
     inkscape:current-layer="svg2" />
  <path
     fill-rule="evenodd"
     d="m 15.000524,11.000002 a 4,4 0 1 1 -8.0000002,0 4,4 0 0 1 8.0000002,0 z m -1.5,0 a 2.5,2.5 0 1 1 -5.0000002,0 2.5,2.5 0 0 1 5.0000002,0 z"
     id="path1" />
  <path
     fill-rule="evenodd"
     d="m 11.000524,2.3952166e-6 c -0.268,0 -0.534,0.010000004783 -0.797,0.028000004783 -0.7630002,0.055 -1.3450002,0.617 -1.5120002,1.304 l -0.352,1.45 c -0.02,0.078 -0.09,0.172 -0.225,0.22 a 8.45,8.45 0 0 0 -0.728,0.303 c -0.13,0.06 -0.246,0.044 -0.315,0.002 l -1.274,-0.776 c -0.604,-0.368 -1.412,-0.354 -1.99,0.147 -0.403,0.348 -0.78,0.726 -1.129,1.128 -0.5,0.579 -0.515,1.387 -0.147,1.99 l 0.776,1.275 c 0.042,0.069 0.059,0.185 -0.002,0.315 -0.112,0.237 -0.213,0.48 -0.302,0.728 -0.05,0.135 -0.143,0.206 -0.221,0.225 l -1.45,0.352 c -0.68700005,0.167 -1.24900005,0.749 -1.30400005,1.5119996 a 11.149,11.149 0 0 0 0,1.594 c 0.055,0.763 0.617,1.345 1.30400005,1.512 l 1.45,0.352 c 0.078,0.02 0.172,0.09 0.22,0.225 0.09,0.248 0.191,0.491 0.303,0.729 0.06,0.129 0.044,0.245 0.002,0.314 l -0.776,1.274 c -0.368,0.604 -0.354,1.412 0.147,1.99 0.348,0.403 0.726,0.78 1.128,1.129 0.579,0.5 1.387,0.515 1.99,0.147 l 1.275,-0.776 c 0.069,-0.042 0.185,-0.059 0.315,0.002 0.237,0.112 0.48,0.213 0.728,0.302 0.135,0.05 0.206,0.143 0.225,0.221 l 0.352,1.45 c 0.167,0.687 0.749,1.249 1.5120002,1.303 a 11.125,11.125 0 0 0 1.594,0 c 0.763,-0.054 1.345,-0.616 1.512,-1.303 l 0.352,-1.45 c 0.02,-0.078 0.09,-0.172 0.225,-0.22 0.248,-0.09 0.491,-0.191 0.729,-0.303 0.129,-0.06 0.245,-0.044 0.314,-0.002 l 1.274,0.776 c 0.604,0.368 1.412,0.354 1.99,-0.147 0.403,-0.348 0.78,-0.726 1.129,-1.128 0.5,-0.579 0.515,-1.387 0.147,-1.99 l -0.776,-1.275 c -0.042,-0.069 -0.059,-0.185 0.002,-0.315 0.112,-0.237 0.213,-0.48 0.302,-0.728 0.05,-0.135 0.143,-0.206 0.221,-0.225 l 1.45,-0.352 c 0.687,-0.167 1.249,-0.749 1.303,-1.512 a 11.125,11.125 0 0 0 0,-1.594 c -0.054,-0.7629996 -0.616,-1.3449996 -1.303,-1.5119996 l -1.45,-0.352 c -0.078,-0.02 -0.172,-0.09 -0.22,-0.225 a 8.469,8.469 0 0 0 -0.303,-0.728 c -0.06,-0.13 -0.044,-0.246 -0.002,-0.315 l 0.776,-1.274 c 0.368,-0.604 0.354,-1.412 -0.147,-1.99 -0.348,-0.403 -0.726,-0.78 -1.128,-1.129 -0.579,-0.5 -1.387,-0.515 -1.99,-0.147 l -1.275,0.776 c -0.069,0.042 -0.185,0.059 -0.315,-0.002 a 8.465,8.465 0 0 0 -0.728,-0.302 c -0.135,-0.05 -0.206,-0.143 -0.225,-0.221 l -0.352,-1.45 c -0.167,-0.687 -0.749,-1.249 -1.512,-1.304 A 11.149,11.149 0 0 0 11.000524,2.3952166e-6 Z M 10.310524,1.5250024 a 9.648,9.648 0 0 1 1.38,0 c 0.055,0.004 0.135,0.05 0.162,0.16 l 0.351,1.45 c 0.153,0.628 0.626,1.08 1.173,1.278 0.205,0.074 0.405,0.157 0.6,0.249 a 1.832,1.832 0 0 0 1.733,-0.074 l 1.275,-0.776 c 0.097,-0.06 0.186,-0.036 0.228,0 0.348,0.302 0.674,0.628 0.976,0.976 0.036,0.042 0.06,0.13 0,0.228 l -0.776,1.274 a 1.832,1.832 0 0 0 -0.074,1.734 c 0.092,0.195 0.175,0.395 0.248,0.6 0.198,0.547 0.652,1.02 1.278,1.172 l 1.45,0.3529996 c 0.111,0.026 0.157,0.106 0.161,0.161 a 9.653,9.653 0 0 1 0,1.38 c -0.004,0.055 -0.05,0.135 -0.16,0.162 l -1.45,0.351 a 1.833,1.833 0 0 0 -1.278,1.173 6.926,6.926 0 0 1 -0.25,0.6 1.832,1.832 0 0 0 0.075,1.733 l 0.776,1.275 c 0.06,0.097 0.036,0.186 0,0.228 a 9.555,9.555 0 0 1 -0.976,0.976 c -0.042,0.036 -0.13,0.06 -0.228,0 l -1.275,-0.776 a 1.832,1.832 0 0 0 -1.733,-0.074 6.926,6.926 0 0 1 -0.6,0.248 1.833,1.833 0 0 0 -1.172,1.278 l -0.353,1.45 c -0.026,0.111 -0.106,0.157 -0.161,0.161 a 9.653,9.653 0 0 1 -1.38,0 c -0.055,-0.004 -0.135,-0.05 -0.162,-0.16 l -0.3510002,-1.45 a 1.833,1.833 0 0 0 -1.173,-1.278 6.928,6.928 0 0 1 -0.6,-0.25 1.832,1.832 0 0 0 -1.734,0.075 l -1.274,0.776 c -0.097,0.06 -0.186,0.036 -0.228,0 a 9.56,9.56 0 0 1 -0.976,-0.976 c -0.036,-0.042 -0.06,-0.13 0,-0.228 l 0.776,-1.275 a 1.832,1.832 0 0 0 0.074,-1.733 6.948,6.948 0 0 1 -0.249,-0.6 1.833,1.833 0 0 0 -1.277,-1.172 l -1.45,-0.353 c -0.111,-0.026 -0.157,-0.106 -0.161,-0.161 a 9.648,9.648 0 0 1 0,-1.38 c 0.004,-0.055 0.05,-0.135 0.16,-0.162 l 1.45,-0.3509996 a 1.833,1.833 0 0 0 1.278,-1.173 6.95,6.95 0 0 1 0.249,-0.6 1.832,1.832 0 0 0 -0.074,-1.734 l -0.776,-1.274 c -0.06,-0.097 -0.036,-0.186 0,-0.228 0.302,-0.348 0.628,-0.674 0.976,-0.976 0.042,-0.036 0.13,-0.06 0.228,0 l 1.274,0.776 a 1.832,1.832 0 0 0 1.734,0.074 6.95,6.95 0 0 1 0.6,-0.249 1.833,1.833 0 0 0 1.172,-1.277 l 0.3530002,-1.45 c 0.026,-0.111 0.106,-0.157 0.161,-0.161 z"
     id="path2" />
</svg>
