<?xml version="1.0" encoding="UTF-8" standalone="no"?>
<!-- Uploaded to: SVG Repo, www.svgrepo.com, Generator: SVG Repo Mixer Tools -->

<svg
   fill="#000000"
   width="600"
   height="625.52802"
   viewBox="0 0 18 18.76584"
   version="1.1"
   id="svg1"
   sodipodi:docname="home.svg"
   inkscape:version="1.3.2 (091e20ef0f, 2023-11-25)"
   xmlns:inkscape="http://www.inkscape.org/namespaces/inkscape"
   xmlns:sodipodi="http://sodipodi.sourceforge.net/DTD/sodipodi-0.dtd"
   xmlns="http://www.w3.org/2000/svg"
   xmlns:svg="http://www.w3.org/2000/svg">
  <defs
     id="defs1" />
  <sodipodi:namedview
     id="namedview1"
     pagecolor="#ffffff"
     bordercolor="#000000"
     borderopacity="0.25"
     inkscape:showpageshadow="2"
     inkscape:pageopacity="0.0"
     inkscape:pagecheckerboard="0"
     inkscape:deskcolor="#d1d1d1"
     inkscape:zoom="1.00625"
     inkscape:cx="300.12422"
     inkscape:cy="325.46584"
     inkscape:window-width="1920"
     inkscape:window-height="1011"
     inkscape:window-x="0"
     inkscape:window-y="0"
     inkscape:window-maximized="1"
     inkscape:current-layer="svg1" />
  <path
     fill-rule="evenodd"
     d="m 8.03,0.35584092 a 1.5,1.5 0 0 1 1.94,0 l 7.5,6.36299998 a 1.5,1.5 0 0 1 0.53,1.144 v 9.4030001 a 1.5,1.5 0 0 1 -1.5,1.5 h -5.75 a 0.75,0.75 0 0 1 -0.75,-0.75 v -6.25 H 8 v 6.25 a 0.75,0.75 0 0 1 -0.75,0.75 H 1.5 a 1.5,1.5 0 0 1 -1.5,-1.5 V 7.8628409 c 0,-0.44 0.194,-0.859 0.53,-1.144 z M 9,1.4998409 l -7.5,6.363 v 9.4030001 h 5 v -6.25 a 0.75,0.75 0 0 1 0.75,-0.75 h 3.5 a 0.75,0.75 0 0 1 0.75,0.75 v 6.25 h 5 V 7.8628409 Z"
     id="path1" />
</svg>
