<?xml version="1.0" encoding="UTF-8" standalone="no"?>
<!-- Uploaded to: SVG Repo, www.svgrepo.com, Generator: SVG Repo Mixer Tools -->

<svg
   fill="#000000"
   width="733.33331"
   height="650"
   viewBox="0 0 21.999999 19.5"
   version="1.1"
   id="svg1"
   sodipodi:docname="inbox.svg"
   inkscape:version="1.3.2 (091e20ef0f, 2023-11-25)"
   xmlns:inkscape="http://www.inkscape.org/namespaces/inkscape"
   xmlns:sodipodi="http://sodipodi.sourceforge.net/DTD/sodipodi-0.dtd"
   xmlns="http://www.w3.org/2000/svg"
   xmlns:svg="http://www.w3.org/2000/svg">
  <defs
     id="defs1" />
  <sodipodi:namedview
     id="namedview1"
     pagecolor="#ffffff"
     bordercolor="#000000"
     borderopacity="0.25"
     inkscape:showpageshadow="2"
     inkscape:pageopacity="0.0"
     inkscape:pagecheckerboard="0"
     inkscape:deskcolor="#d1d1d1"
     inkscape:zoom="1.00625"
     inkscape:cx="366.70807"
     inkscape:cy="316.52174"
     inkscape:window-width="1920"
     inkscape:window-height="1011"
     inkscape:window-x="0"
     inkscape:window-y="0"
     inkscape:window-maximized="1"
     inkscape:current-layer="svg1" />
  <path
     fill-rule="evenodd"
     d="M 3.801,1.0700001 A 1.75,1.75 0 0 1 5.414,7.6489373e-8 H 16.588 C 17.29,7.6489373e-8 17.925,0.42000008 18.199,1.0670001 l 3.741,8.828 C 21.98,9.9870001 22,10.087 22,10.188 V 17.75 A 1.75,1.75 0 0 1 20.25,19.5 H 1.75 A 1.75,1.75 0 0 1 0,17.75 v -7.5 c 0,-0.1 0.02,-0.199 0.059,-0.2909999 l 3.741,-8.888 z m 1.613,0.43 a 0.25,0.25 0 0 0 -0.23,0.153 l -3.304,7.847 H 7 a 0.75,0.75 0 0 1 0.648,0.372 L 9.18,12.5 h 3.638 l 1.533,-2.6279999 a 0.75,0.75 0 0 1 0.64,-0.372 l 5.13,-0.051 -3.304,-7.797 a 0.25,0.25 0 0 0 -0.23,-0.152 z M 20.5,10.945 l -5.067,0.05 -1.535,2.633 A 0.75,0.75 0 0 1 13.25,14 H 8.75 A 0.75,0.75 0 0 1 8.102,13.628 L 6.57,11 H 1.5 v 6.75 C 1.5,17.888 1.612,18 1.75,18 h 18.5 a 0.25,0.25 0 0 0 0.25,-0.25 z"
     id="path1" />
</svg>
