<?xml version="1.0" encoding="UTF-8" standalone="no"?>
<svg
   id="visual"
   viewBox="0 0 900 231.5"
   width="900"
   height="231.5"
   version="1.1"
   xmlns="http://www.w3.org/2000/svg"
   xmlns:svg="http://www.w3.org/2000/svg">
  <defs
     id="defs3" />
  <path
     d="m 0,214.06468 23.58442,4.99715 c 23.58443,5.10126 70.75328,15.09557 117.70275,11.66003 47.05916,-3.43555 93.78923,-20.50915 140.84839,-37.47865 46.94946,-16.9695 94.11832,-34.04311 141.06778,-28.42131 47.05916,5.51769 93.78923,33.62668 140.84839,34.45954 46.94946,0.93696 94.11832,-25.50631 141.06778,-37.06222 47.05916,-11.66003 93.78923,-8.53681 140.84839,4.68483 46.94946,13.11752 94.11832,36.43757 117.70274,47.99349 l 23.58443,11.66002 V 16.260706 h -23.58443 c -23.58442,0 -70.75328,0 -117.70274,0 -47.05916,0 -93.78923,0 -140.84839,0 -46.94946,0 -94.11832,0 -141.06778,0 -47.05916,0 -93.78923,0 -140.84839,0 -46.94946,0 -94.11832,0 -141.06778,0 -47.05916,0 -93.78923,0 -140.84839,0 -46.94947,0 -94.11832,0 -117.70275,0 H 0 Z"
     fill="#1e266b"
     id="path1"
     style="stroke-width:1.06864" />
  <path
     d="m 962.24525,128.957 -31.10793,-4.29198 c -31.10782,-4.292 -93.32356,-12.876 -154.49097,-4.70497 -61.31554,8.07405 -121.43451,33.0001 -182.99916,35.5883 -61.42118,2.58168 -124.13517,-16.97402 -186.18146,-28.15871 -62.18979,-11.17817 -123.5684,-13.99186 -184.86515,-5.5038 -61.15327,8.48155 -122.08117,28.25836 -182.877222,44.6064 -60.93483,16.45807 -121.58961,29.58439 -183.497328,24.6166 -61.76434,-4.97429 -124.63822,-28.0492 -156.07504,-39.58666 l -31.43684,-11.53746 -4.5122,-99.366289 30.84931,-1.400858 c 30.84931,-1.40086 92.54814,-4.202586 153.95994,-6.991281 C -89.433584,29.431087 -28.308782,26.655427 33.246476,23.860218 94.658252,21.071526 156.35699,18.269803 217.76877,15.48111 279.32402,12.685902 340.44883,9.9102416 402.0041,7.1150329 463.41587,4.3263409 525.1146,1.5246178 586.52638,-1.2640753 648.08163,-4.0592831 709.20644,-6.8349437 770.7617,-9.6301517 832.17351,-12.418846 893.87223,-15.220568 924.72154,-16.621428 l 30.84941,-1.400863 z"
     fill="#181e56"
     id="path2"
     style="stroke-width:1.21993" />
  <path
     d="M 0,65 21.5,61.5 C 43,58 86,51 128.8,57 171.7,63 214.3,82 257.2,83.5 300,85 343,69 385.8,69.3 c 42.9,0.4 85.5,17 128.4,20.4 C 557,93 600,83 642.8,74.8 685.7,66.7 728.3,60.3 771.2,65.3 814,70.3 857,86.7 878.5,94.8 L 900,103 V 0 H 878.5 C 857,0 814,0 771.2,0 728.3,0 685.7,0 642.8,0 600,0 557,0 514.2,0 471.3,0 428.7,0 385.8,0 343,0 300,0 257.2,0 214.3,0 171.7,0 128.8,0 86,0 43,0 21.5,0 H 0 Z"
     fill="#121742"
     id="path3" />
</svg>
