<?xml version="1.0" encoding="UTF-8" standalone="no"?>
<svg
   id="visual"
   viewBox="0 0 900 138.70659"
   width="900"
   height="138.70659"
   version="1.1"
   xmlns="http://www.w3.org/2000/svg"
   xmlns:svg="http://www.w3.org/2000/svg">
  <defs
     id="defs2" />
  <path
     d="m 0,9.7065906 25,8.3000004 c 25,8.4 75,25 125,25.5 50,0.5 100,-15.1 150,-17.8 50,-2.7 100,7.7 150,15.7 50,8 100,13.6 150,5.5 50,-8.2 100,-30.2 150,-39.9000004 50,-9.6 100,-6.99999995 125,-5.6 l 25,1.3 V 138.70659 h -25 c -25,0 -75,0 -125,0 -50,0 -100,0 -150,0 -50,0 -100,0 -150,0 -50,0 -100,0 -150,0 -50,0 -100,0 -150,0 -50,0 -100,0 -125,0 H 0 Z"
     fill="#f7f7f7"
     id="path1" />
  <path
     d="m 0,53.706591 25,4.3 c 25,4.4 75,13 125,15.2 50,2.2 100,-2.2 150,-2.8 50,-0.7 100,2.3 150,8.3 50,6 100,15 150,12.5 50,-2.5 100,-16.5 150,-25.3 50,-8.9 100,-12.5 125,-14.4 l 25,-1.8 v 88.999999 h -25 c -25,0 -75,0 -125,0 -50,0 -100,0 -150,0 -50,0 -100,0 -150,0 -50,0 -100,0 -150,0 -50,0 -100,0 -150,0 -50,0 -100,0 -125,0 H 0 Z"
     fill="#e5e5ea"
     id="path2" />
</svg>
