<?xml version="1.0" encoding="UTF-8" standalone="no"?>
<!-- Uploaded to: SVG Repo, www.svgrepo.com, Generator: SVG Repo Mixer Tools -->

<svg
   fill="#000000"
   height="643.12317"
   width="784.07764"
   version="1.1"
   id="Layer_1"
   viewBox="0 0 501.80969 411.59883"
   xml:space="preserve"
   sodipodi:docname="lathe.svg"
   inkscape:version="1.3.2 (091e20ef0f, 2023-11-25)"
   xmlns:inkscape="http://www.inkscape.org/namespaces/inkscape"
   xmlns:sodipodi="http://sodipodi.sourceforge.net/DTD/sodipodi-0.dtd"
   xmlns="http://www.w3.org/2000/svg"
   xmlns:svg="http://www.w3.org/2000/svg"><defs
   id="defs6" /><sodipodi:namedview
   id="namedview6"
   pagecolor="#ffffff"
   bordercolor="#000000"
   borderopacity="0.25"
   inkscape:showpageshadow="2"
   inkscape:pageopacity="0.0"
   inkscape:pagecheckerboard="0"
   inkscape:deskcolor="#d1d1d1"
   inkscape:zoom="0.7327394"
   inkscape:cx="425.7994"
   inkscape:cy="487.89515"
   inkscape:window-width="1920"
   inkscape:window-height="1011"
   inkscape:window-x="0"
   inkscape:window-y="0"
   inkscape:window-maximized="1"
   inkscape:current-layer="g4" />
<g
   id="g6"
   transform="translate(-5.1032052,-50.198982)">
	<g
   id="g5">
		<g
   id="g4">
			
			
			
			<path
   id="path4"
   d="m 95.294922,50.228516 c -28.352646,-7.95e-4 -56.706714,-0.04005 -85.058459,0.03368 -3.0069978,0.311739 -5.4477736,3.294672 -5.1002053,6.313197 -0.044947,41.080571 -0.00626,82.161197 -0.018257,123.241797 0.00169,92.20353 8.137e-4,184.40752 0.022637,276.61076 0.1779825,3.11151 3.2407013,5.69724 6.3429563,5.33606 50.745815,0.0409 101.491666,0.005 152.237496,0.0163 87.83062,-0.002 175.66169,-0.002 263.49202,-0.0225 3.10997,-0.17819 5.69911,-3.23828 5.33605,-6.341 0.0407,-50.27928 0.006,-100.5586 0.0173,-150.83789 0,-46.20078 0,-92.40157 0,-138.60235 10.16731,0 20.33463,0 30.50195,0 0.0182,14.11287 -0.056,28.22809 0.0617,42.3394 0.43652,3.28962 4.08266,5.77041 7.29375,4.74849 2.45649,-0.67262 4.39266,-3.03987 4.29925,-5.62824 0.0697,-2.89565 -0.0214,-5.79339 0.023,-8.69012 0,-26.68945 0,-53.3789 0,-80.06836 9.08216,-0.0186 18.16736,0.0795 27.24748,-0.0685 3.31081,-0.46796 5.76408,-4.20682 4.64479,-7.41634 -0.72127,-2.41958 -3.08803,-4.283 -5.65145,-4.16269 -3.13922,-0.0672 -6.28058,0.013 -9.42089,-0.0234 -7.91711,0.025 -15.84053,-0.078 -23.75352,0.0948 -2.84034,0.5118 -5.04197,3.3752 -4.72883,6.26055 -0.0282,13.64555 -0.0133,27.29114 -0.0153,40.93672 -10.16732,0 -20.33464,0 -30.50195,0 -0.0301,-12.9767 0.078,-25.95629 -0.0762,-38.9311 -0.4299,-2.95549 -3.42592,-5.24406 -6.39571,-4.87772 -30.98528,-0.0344 -61.97057,-0.006 -92.95586,0.004 -2.61431,0.34835 -4.66521,2.17815 -7.00167,3.24127 -15.79089,8.62672 -31.61743,17.19089 -47.35833,25.90733 -4.63282,2.85942 -8.08157,7.41118 -9.9857,12.4764 -0.93784,1.83266 -3.2075,2.46844 -5.12344,2.15651 -13.90118,0.0695 -27.80443,-0.0401 -41.70441,0.0757 -3.3293,0.37978 -5.87583,4.07595 -4.82557,7.31363 0.67085,2.456 3.03622,4.3862 5.62348,4.28976 2.79448,0.0729 5.59101,-0.0262 8.38658,0.0218 12.28281,0 24.56562,0 36.84844,0 1.64954,5.20898 4.60053,10.14296 9.02523,13.44863 3.35084,2.4174 7.04947,4.06356 10.63077,6.11715 14.60333,7.96629 29.18495,15.98006 43.83708,23.85127 2.42893,0.7906 5.01305,0.24097 7.512,0.40717 10.86158,0 21.72317,0 32.58476,0 0,32.62695 0,65.25391 0,97.88086 -20.88021,0 -41.76042,0 -62.64062,0 -0.0188,-14.78793 0.0614,-29.5785 -0.0664,-44.36469 -0.41484,-2.97781 -3.42714,-5.29415 -6.41723,-4.92072 -33.80766,-0.0242 -67.6154,-0.0356 -101.42302,0.0175 -1.61757,0.0424 -3.37278,-0.23593 -4.81342,0.68984 -2.01362,1.11872 -3.28885,3.44451 -3.02254,5.75109 -0.0246,14.27564 -0.0118,28.5513 -0.0133,42.82695 -29.58399,0 -59.16797,0 -88.75196,0 0,-22.05794 0,-44.11588 0,-66.17383 14.70058,-3.26539 29.4006,-6.53329 44.10157,-9.79687 14.69873,-0.0101 29.4001,0.0558 44.09711,-0.0664 2.96515,-0.41672 5.27613,-3.41456 4.90906,-6.39379 0.007,-14.66651 0.0622,-29.33575 -0.0321,-44.00055 -0.35972,-2.97336 -3.31739,-5.36096 -6.30924,-5.0204 -12.48851,-0.035 -24.97708,-0.0156 -37.46563,-0.0189 0,-10.71745 0,-21.4349 0,-32.15235 12.9819,-0.009 25.96672,0.078 38.94671,-0.0704 2.94422,-0.43848 5.21356,-3.41788 4.86411,-6.37609 4.9e-4,-14.67429 0.0635,-29.35148 -0.0385,-44.023925 -0.36828,-2.95816 -3.3061,-5.333569 -6.28478,-5.00648 -14.22888,-0.031 -28.45781,-0.01519 -42.68671,-0.01725 -14.70098,-3.264212 -29.40098,-6.532877 -44.10157,-9.798828 -0.044,-7.922372 0.0973,-15.84927 -0.0924,-23.768587 -0.48675,-2.850287 -3.34654,-5.046197 -6.228584,-4.775249 -0.940958,-0.03014 -1.882422,-0.0022 -2.823494,0.0067 z M 18.074219,61.896484 c 24.896484,0 49.792968,0 74.689453,0 0,65.494146 0,130.988286 0,196.482426 -25.322917,0 -50.645833,0 -75.96875,0 0,-65.49414 0,-130.98829 0,-196.482426 0.426432,0 0.852864,0 1.279297,0 z m 87.923831,29.169922 c 12.0222,2.670899 24.04427,5.342452 36.0664,8.013672 0,40.703772 0,81.407552 0,122.111332 -12.54104,2.78698 -25.08192,5.57471 -37.62304,8.36132 0,-46.27734 0,-92.55468 0,-138.832027 0.51888,0.115234 1.03776,0.230469 1.55664,0.345703 z m 49.02343,9.173824 c 10.28907,0 20.57813,0 30.86719,0 0,10.7155 0,21.43099 0,32.14649 -10.71549,0 -21.43099,0 -32.14648,0 0,-10.7155 0,-21.43099 0,-32.14649 0.42643,0 0.85286,0 1.27929,0 z m 185.69922,21.91211 c 26.72266,0 53.44532,0 80.16797,0 0,25.32292 0,50.64584 0,75.96875 -27.14909,0 -54.29818,0 -81.44726,0 0,-25.32291 0,-50.64583 0,-75.96875 0.42643,0 0.85286,0 1.27929,0 z m -12.95508,6.14844 c 0,21.94336 10e-6,43.88672 0,65.83008 -14.38894,-7.86559 -28.81862,-15.66049 -43.15498,-23.6187 -5.17367,-3.37709 -6.98325,-10.86576 -4.00357,-16.26172 1.4755,-2.83683 4.10917,-4.89423 6.98431,-6.1881 13.39132,-7.30611 26.78342,-14.6108 40.17424,-21.91781 0,0.71875 10e-6,1.4375 0,2.15625 z m -172.74414,59.58594 c 10.28907,0 20.57813,0 30.86719,0 0,10.71549 0,21.43099 0,32.14648 -10.71549,0 -21.43099,0 -32.14648,0 0,-10.71549 0,-21.43099 0,-32.14648 0.42643,0 0.85286,0 1.27929,0 z m 229.52344,21.91211 c 12.11459,0 24.22917,0 36.34375,0 0,32.62695 0,65.2539 0,97.88086 -12.54101,0 -25.08203,0 -37.62305,0 10e-6,-32.62696 0,-65.25391 0,-97.88086 0.42644,0 0.85287,0 1.2793,0 z M 18.074219,270.05664 c 24.896484,0 49.792968,0 74.689453,0 0,12.54102 0,25.08203 0,37.62305 -25.322917,0 -50.645833,0 -75.96875,0 0,-12.54102 0,-25.08203 0,-37.62305 0.426432,0 0.852864,0 1.279297,0 z m 188.074221,0 c 30.37435,0 60.7487,0 91.12304,0 0,12.54102 0,25.08203 0,37.62305 -30.80078,0 -61.60156,0 -92.40234,0 0,-12.54102 0,-25.08203 0,-37.62305 0.42643,0 0.85287,0 1.2793,0 z M 18.074219,319.35547 c 134.271481,0 268.542971,0 402.814451,0 0,25.32292 0,50.64583 0,75.96875 -20.47176,0.008 -40.94508,-0.0422 -61.41585,0.0496 -3.25986,0.3803 -5.78506,3.91442 -4.89297,7.11943 0.59991,2.4953 2.94031,4.55892 5.56774,4.47891 2.86443,0.0927 5.73187,-0.0225 8.59772,0.0298 17.38112,0 34.76224,0 52.14336,0 0,14.36719 0,28.73438 0,43.10157 -134.69791,0 -269.39583,0 -404.093748,0 0,-25.32292 0,-50.64584 0,-75.96875 20.112308,-0.009 40.226507,0.0453 60.337596,-0.0527 3.294819,-0.38196 5.824924,-4.00648 4.847372,-7.22516 -0.645929,-2.524 -3.092451,-4.52174 -5.74117,-4.37868 -3.264289,-0.0548 -6.530187,0.0106 -9.795361,-0.0212 -16.549479,0 -33.098958,0 -49.648437,0 0,-14.36719 0,-28.73437 0,-43.10156 0.426432,0 0.852864,0 1.279297,0 z m 101.451171,43.10742 c -3.29365,0.19401 -6.04094,3.60196 -5.30465,6.87141 0.47643,2.5664 2.776,4.72179 5.42768,4.78214 2.27982,0.27735 4.82472,-0.4444 6.15246,-2.43277 1.62811,-2.17202 1.41948,-5.45908 -0.50724,-7.38357 -1.23915,-1.37069 -3.12546,-1.98386 -4.94243,-1.8456 -0.27528,-0.004 -0.55056,0.007 -0.82582,0.008 z m 41.78125,0.006 c -3.42685,0.0845 -6.30856,3.7165 -5.39876,7.07474 0.5516,2.64537 3.09732,4.7054 5.81745,4.57271 2.60467,-0.0102 5.01898,-1.96693 5.55056,-4.52052 0.61865,-2.47312 -0.6267,-5.21655 -2.88331,-6.39646 -0.93578,-0.52202 -2.01308,-0.7948 -3.08594,-0.73047 z m 159.31641,32.84961 c -1.97549,-0.18986 -3.98847,0.63089 -5.2351,2.18179 -1.87262,2.1179 -1.70666,5.57621 0.23486,7.59356 1.27067,1.50993 3.31009,2.05003 5.21803,1.92347 2.11181,-0.002 4.22244,-1.08431 5.23655,-2.97504 1.36086,-2.3442 0.83864,-5.58396 -1.28167,-7.30476 -1.14436,-0.97971 -2.66822,-1.49729 -4.17267,-1.41902 z" />
		</g>
	</g>
</g>
</svg>
