<?xml version="1.0" encoding="UTF-8" standalone="no"?>
<!-- Uploaded to: SVG Repo, www.svgrepo.com, Generator: SVG Repo Mixer Tools -->

<svg
   fill="#000000"
   height="800px"
   width="800px"
   version="1.1"
   id="Layer_1"
   viewBox="0 0 512.003 512.003"
   xml:space="preserve"
   sodipodi:docname="industrial-robot-factory-svgrepo-com.svg"
   inkscape:version="1.3.2 (091e20ef0f, 2023-11-25)"
   xmlns:inkscape="http://www.inkscape.org/namespaces/inkscape"
   xmlns:sodipodi="http://sodipodi.sourceforge.net/DTD/sodipodi-0.dtd"
   xmlns="http://www.w3.org/2000/svg"
   xmlns:svg="http://www.w3.org/2000/svg"><defs
   id="defs9" /><sodipodi:namedview
   id="namedview9"
   pagecolor="#ffffff"
   bordercolor="#000000"
   borderopacity="0.25"
   inkscape:showpageshadow="2"
   inkscape:pageopacity="0.0"
   inkscape:pagecheckerboard="0"
   inkscape:deskcolor="#d1d1d1"
   inkscape:zoom="0.3663697"
   inkscape:cx="-76.425534"
   inkscape:cy="495.40123"
   inkscape:window-width="1920"
   inkscape:window-height="1011"
   inkscape:window-x="0"
   inkscape:window-y="0"
   inkscape:window-maximized="1"
   inkscape:current-layer="Layer_1" />
<g
   id="g9">
	<g
   id="g8">
		<g
   id="g7">
			
			
			
			
			
			
			<path
   id="path7"
   d="M 302.83594,2.5605469 C 204.61789,2.563346 106.39943,2.5536057 8.1816406,2.5722656 4.9939001,2.6787504 2.2584235,5.7542921 2.5830522,8.9429641 2.5407433,24.969448 2.5636505,40.996145 2.5710037,57.022626 c 0.096244,1.873652 -0.3180936,3.918262 0.7419444,5.600906 1.1265253,2.029554 3.459708,3.311915 5.7843172,3.076463 9.1993457,0.01138 18.3986957,0.01167 27.5980467,0.009 10e-7,69.953126 0,139.906246 0,209.859376 -3.973578,0.57362 -7.897119,2.072 -10.881411,4.82092 -4.171982,3.68588 -6.465463,9.32277 -6.184995,14.87049 0,10.48307 0,20.96614 0,31.44921 -3.741458,0.41272 -7.500083,1.57658 -10.4378492,4.00857 -2.4885379,1.92635 -4.4410995,4.73873 -5.5035568,7.57151 -0.9807358,2.48085 -1.2278565,5.16937 -1.1289655,7.81524 0.00866,26.09388 -0.026354,52.18828 0.026054,78.28184 0.2414918,6.77634 4.8218686,13.1403 11.1500835,15.56124 2.756923,1.11572 5.767985,1.3412 8.712203,1.2284 1.905078,0 3.810156,0 5.715234,0 0,18.77344 0,37.54688 0,56.32031 -6.797149,0.0148 -13.597419,-0.0548 -20.3925778,0.0449 -3.0060323,0.31271 -5.442345,3.28882 -5.2058593,6.2483 0.1316873,3.00297 2.8053695,5.67489 5.8447896,5.63957 3.2616465,0.0334 6.5254555,-3.2e-4 9.7884135,0.0144 161.872515,-0.004 323.745115,0.003 485.617575,-0.008 3.18754,-0.11594 5.90038,-3.15676 5.6269,-6.34188 -0.16438,-2.92302 -2.71393,-5.53442 -5.67809,-5.57846 -2.28215,-0.0609 -4.5676,0.0137 -6.85154,-0.0211 -4.35599,0 -8.71198,0 -13.06797,0 0,-18.76823 0,-37.53646 0,-56.30469 3.71205,-0.13717 7.45431,0.24818 11.14258,-0.29883 3.4168,-0.60905 6.60851,-2.30719 9.09961,-4.71289 0.37278,-0.36265 0.96654,-0.97466 1.37384,-1.48782 2.69467,-3.21649 4.03685,-7.42833 3.99803,-11.60168 -0.04,-23.9105 0.005,-47.82191 -0.0249,-71.73276 -0.0499,-2.92999 0.097,-5.86776 -0.0912,-8.79259 -0.67425,-6.72115 -5.57841,-12.81234 -12.04206,-14.81992 -1.5959,-0.53378 -3.26463,-0.78256 -4.92081,-1.04765 -0.0172,-11.23972 0.0448,-22.48101 -0.043,-33.71973 -0.4043,-7.13385 -5.34584,-13.7748 -12.08679,-16.16681 -1.59407,-0.60357 -3.27154,-0.93098 -4.93861,-1.25994 0,-69.94727 0,-139.89453 0,-209.841799 9.64227,-0.01308 19.28706,0.05187 28.92773,-0.04297 3.03331,-0.33879 5.497,-3.314604 5.18922,-6.368748 0.0289,-16.580243 0.0281,-33.160836 0.005,-49.7409174 0.0574,-1.4785601 -0.0517,-3.045062 -0.96775,-4.2777144 -1.18736,-1.8329093 -3.38976,-2.9187956 -5.56939,-2.7084006 -66.68646,-0.00871 -133.37291,-0.011187 -200.05937,-0.00773 z M 15.791016,14.509766 c 160.568354,0 321.136714,0 481.705074,0 0,13.083333 0,26.166666 0,39.25 -160.99479,0 -321.98958,0 -482.984371,0 0,-13.083334 0,-26.166667 0,-39.25 0.426432,0 0.852864,0 1.279297,0 z m 34.132812,51.199218 c 12.657552,0 25.315104,0 37.972656,0 0,69.972656 0,139.945316 0,209.917966 -13.083984,0 -26.167968,0 -39.251953,0 0,-69.97265 0,-139.94531 0,-209.917966 0.426433,0 0.852865,0 1.279297,0 z m 51.201172,0 c 38.25781,0 76.51563,0 114.77344,0 0.0143,9.641547 -0.0544,19.286204 0.0449,28.925782 0.32803,3.036688 3.31096,5.490114 6.36054,5.197471 3.55233,0.01361 7.10469,0.01276 10.65704,0.0076 0.0367,7.137726 -0.0774,14.278116 0.0684,21.414066 0.17838,2.47515 0.78662,4.91413 1.75586,7.19726 0.28415,0.67332 0.8144,1.74278 1.18359,2.38477 2.73392,4.88841 7.33354,8.64248 12.61978,10.46239 0.44104,0.30132 1.45089,0.20357 1.44207,0.82003 0.0138,6.92769 -0.0506,13.85792 0.0436,20.78398 0.34527,3.14638 3.52537,5.63651 6.66755,5.16897 2.82125,-0.34084 5.23024,-2.88486 5.2188,-5.76455 0.0371,-3.07478 -7.1e-4,-6.15202 0.016,-9.22824 0,-3.7573 0,-7.51459 0,-11.27188 4.8016,-1.45617 9.24857,-4.27194 12.28968,-8.30218 3.43656,-4.37665 5.03917,-10.03317 4.77868,-15.56305 0,-6.03256 0,-12.06511 0,-18.09766 4.01462,-0.04518 8.03571,0.08331 12.04607,-0.07399 2.96486,-0.430214 5.30218,-3.368908 5.00942,-6.362726 0.0132,-9.232679 0.0139,-18.465362 0.0109,-27.698048 38.68294,0 77.36588,0 116.04883,0 0,69.972656 0,139.945316 0,209.917966 -30.14974,0 -60.29948,0 -90.44922,0 0,-13.08333 0,-26.16666 0,-39.25 13.08268,0 26.16536,0 39.24804,0 0.0484,4.02429 -0.09,8.05596 0.0796,12.07541 0.46582,3.15068 3.76207,5.52401 6.89964,4.91444 2.71713,-0.46401 4.97864,-2.95308 4.95728,-5.74972 0.0353,-3.10217 -0.002,-6.20655 0.0153,-9.31005 -0.0112,-8.54878 0.0313,-17.09905 -0.0358,-25.64687 -0.2902,-3.14235 -3.41057,-5.66979 -6.54902,-5.27959 -2.88173,0.28503 -5.37517,2.87401 -5.35038,5.80899 -0.032,3.45104 -0.002,6.90449 -0.0147,10.35692 0.22029,0.84673 -0.23988,1.01299 -1,0.8793 -12.75065,0 -25.5013,0 -38.25196,0 -0.0131,-9.63901 0.0519,-19.28055 -0.043,-28.91797 -0.33461,-3.03755 -3.31089,-5.50583 -6.36875,-5.1972 -29.58798,-0.0404 -59.17605,-0.0102 -88.76407,-0.0165 -10.30385,0.0152 -20.60916,-0.0162 -30.91211,0.0282 -3.01891,0.28614 -5.55036,3.16975 -5.30556,6.22035 -0.0479,9.29398 -0.007,18.58882 -0.0206,27.88316 -13.08268,0 -26.16536,0 -39.24804,0 -0.0413,-4.00205 0.0749,-8.009 -0.0664,-12.00781 -0.42657,-3.09803 -3.59073,-5.49723 -6.69476,-5.01596 -2.86618,0.3661 -5.28939,3.02537 -5.17477,5.95442 -0.0361,3.87639 -0.001,7.7551 -0.0161,11.63263 0.0119,7.73064 -0.0324,15.46312 0.04,23.19258 0.29301,2.96668 3.15649,5.40823 6.0824,5.26773 3.02051,-0.0416 5.78561,-2.66877 5.80822,-5.72476 0.0542,-2.6028 -0.009,-5.20789 0.0195,-7.81211 0,-1.17852 0,-2.35703 0,-3.53555 13.08334,0 26.16667,0 39.25,0 0,13.08334 0,26.16667 0,39.25 -30.14974,0 -60.29948,0 -90.449217,0 0,-69.97265 0,-139.94531 0,-209.917966 0.426437,0 0.852867,0 1.279297,0 z m 128,0 c 18.3457,0 36.69141,0 55.03711,0 0,7.395183 0,14.790365 0,22.185547 -18.77214,0 -37.54427,0 -56.31641,0 0,-7.395182 0,-14.790364 0,-22.185547 0.42644,0 0.85287,0 1.2793,0 z m 196.26562,0 c 12.65691,0 25.31381,0 37.97071,0 0,69.972656 0,139.945316 0,209.917966 -13.08334,0 -26.16667,0 -39.25,0 0,-69.97265 0,-139.94531 0,-209.917966 0.42643,0 0.85286,0 1.27929,0 z M 246.19141,99.84375 c 6.9681,0 13.93619,0 20.90429,0 -0.0232,6.92413 0.0626,13.85117 -0.0547,20.77344 -0.42733,4.84906 -4.43127,9.09945 -9.25012,9.8063 -4.668,0.81287 -9.68732,-1.74254 -11.73436,-6.02497 -1.11697,-2.17423 -1.24634,-4.67045 -1.14443,-7.06571 0,-5.82969 0,-11.65937 0,-17.48906 0.42643,0 0.85286,0 1.2793,0 z m -42.66797,102.40039 c 35.41276,0 70.82552,0 106.23828,0 0,24.46094 0,48.92188 0,73.38281 -35.83919,0 -71.67839,0 -107.51758,0 0,-24.46093 0,-48.92187 0,-73.38281 0.42643,0 0.85287,0 1.2793,0 z M 38.210938,287.57617 c 145.262432,0.004 290.525132,-0.005 435.787402,0.006 3.56928,0.0227 6.68,3.38655 6.43135,6.94792 0,10.76523 0,21.53047 0,32.2957 -149.61719,0 -299.23438,0 -448.851565,0 0.01279,-11.06221 -0.03496,-22.12649 0.03331,-33.1874 0.217533,-3.32625 3.270927,-6.11599 6.5995,-6.0626 z M 20.15625,338.77734 c 157.29295,2.1e-4 314.58603,-0.002 471.87891,0.008 3.10194,0.035 5.73727,3.02307 5.45704,6.10039 -0.009,26.37456 0.0273,52.75053 -0.0264,79.12422 -0.16319,3.06029 -3.17912,5.53585 -6.20681,5.21679 -157.09803,-0.003 -314.19618,0 -471.294136,-0.006 -3.151054,-0.0434 -5.790097,-3.11151 -5.457041,-6.22734 0.0048,-26.33223 -0.0179,-52.66593 0.0229,-78.99723 0.176949,-2.84838 2.77472,-5.24814 5.625546,-5.21879 z m 64.619141,22.19141 c -7.133984,0.11806 -14.080098,3.81119 -18.182528,9.64526 -4.503904,6.15239 -5.532509,14.6003 -2.756861,21.6856 1.453022,3.85695 4.138171,7.36259 7.290951,9.83711 5.809548,4.64602 13.938567,6.1086 21.023457,3.88046 7.826844,-2.34798 14.09221,-9.19834 15.72264,-17.20663 0.33455,-1.52784 0.53017,-3.30518 0.50586,-4.95508 -0.0209,-6.38057 -2.81983,-12.69281 -7.59102,-16.94045 -4.322125,-3.94537 -10.162871,-6.1106 -16.012499,-5.94627 z m 0.589843,11.94141 c 4.999215,-0.0806 9.732214,3.69039 10.78195,8.57797 1.100806,4.53085 -1.016974,9.62227 -5.039503,11.99824 -4.017042,2.49961 -9.623029,2.02582 -13.127273,-1.17088 -3.51624,-3.05585 -4.740085,-8.42274 -2.847596,-12.68854 1.688422,-3.99252 5.880352,-6.79918 10.232422,-6.71679 z m -43.974609,68.26562 c 12.656901,0 25.313802,0 37.970703,0 0,18.77279 0,37.54557 0,56.31836 -13.083333,0 -26.166667,0 -39.25,0 0,-18.77279 0,-37.54557 0,-56.31836 0.426432,0 0.852865,0 1.279297,0 z m 51.199219,0 c 109.368486,0 218.736976,0 328.105466,0 0,18.77279 0,37.54557 0,56.31836 -109.79492,0 -219.58984,0 -329.384763,0 0,-18.77279 0,-37.54557 0,-56.31836 0.426432,0 0.852864,0 1.279297,0 z m 341.333986,0 c 12.65755,0 25.3151,0 37.97265,0 0,18.77279 0,37.54557 0,56.31836 -13.08398,0 -26.16796,0 -39.25195,0 0,-18.77279 0,-37.54557 0,-56.31836 0.42643,0 0.85287,0 1.2793,0 z" />
		</g>
	</g>
</g>
</svg>
