<?xml version="1.0" encoding="UTF-8" standalone="no"?>
<!-- Uploaded to: SVG Repo, www.svgrepo.com, Generator: SVG Repo Mixer Tools -->

<svg
   fill="#000000"
   width="599.77716"
   height="633.87653"
   viewBox="0 0 17.993315 19.016296"
   version="1.1"
   id="svg1"
   sodipodi:docname="person.svg"
   inkscape:version="1.3.2 (091e20ef0f, 2023-11-25)"
   xmlns:inkscape="http://www.inkscape.org/namespaces/inkscape"
   xmlns:sodipodi="http://sodipodi.sourceforge.net/DTD/sodipodi-0.dtd"
   xmlns="http://www.w3.org/2000/svg"
   xmlns:svg="http://www.w3.org/2000/svg">
  <defs
     id="defs1" />
  <sodipodi:namedview
     id="namedview1"
     pagecolor="#ffffff"
     bordercolor="#000000"
     borderopacity="0.25"
     inkscape:showpageshadow="2"
     inkscape:pageopacity="0.0"
     inkscape:pagecheckerboard="0"
     inkscape:deskcolor="#d1d1d1"
     inkscape:zoom="1.00625"
     inkscape:cx="300.12422"
     inkscape:cy="316.52174"
     inkscape:window-width="1920"
     inkscape:window-height="1011"
     inkscape:window-x="0"
     inkscape:window-y="0"
     inkscape:window-maximized="1"
     inkscape:current-layer="svg1" />
  <path
     fill-rule="evenodd"
     d="M 8.9963374,2.579463e-7 A 5.5,5.5 0 0 0 5.9003374,10.047 9.005,9.005 0 0 0 3.374241e-4,18.227 0.75033742,0.75033742 0 0 0 1.5003374,18.272 a 7.5,7.5 0 0 1 14.9929996,0 0.75,0.75 0 1 0 1.499,-0.044 9.005,9.005 0 0 0 -5.9,-8.181 A 5.5,5.5 0 0 0 8.9963374,2.579463e-7 Z m -4,5.5000000420537 a 4,4 0 1 1 7.9999996,0 4,4 0 0 1 -7.9999996,0 z"
     id="path1" />
</svg>
