<?xml version="1.0" encoding="UTF-8" standalone="no"?>
<!-- Uploaded to: SVG Repo, www.svgrepo.com, Generator: SVG Repo Mixer Tools -->

<svg
   fill="#000000"
   width="733.33331"
   height="733.33337"
   viewBox="0 0 21.999999 22.000001"
   version="1.1"
   id="svg1"
   sodipodi:docname="refresh.svg"
   inkscape:version="1.3.2 (091e20ef0f, 2023-11-25)"
   xmlns:inkscape="http://www.inkscape.org/namespaces/inkscape"
   xmlns:sodipodi="http://sodipodi.sourceforge.net/DTD/sodipodi-0.dtd"
   xmlns="http://www.w3.org/2000/svg"
   xmlns:svg="http://www.w3.org/2000/svg">
  <defs
     id="defs1" />
  <sodipodi:namedview
     id="namedview1"
     pagecolor="#ffffff"
     bordercolor="#000000"
     borderopacity="0.25"
     inkscape:showpageshadow="2"
     inkscape:pageopacity="0.0"
     inkscape:pagecheckerboard="0"
     inkscape:deskcolor="#d1d1d1"
     inkscape:zoom="1.03625"
     inkscape:cx="366.22437"
     inkscape:cy="366.22437"
     inkscape:window-width="1920"
     inkscape:window-height="1011"
     inkscape:window-x="0"
     inkscape:window-y="0"
     inkscape:window-maximized="1"
     inkscape:current-layer="svg1" />
  <path
     d="m 2.38,7.0000009 a 9.502,9.502 0 0 1 8.62,-5.5 9.502,9.502 0 0 1 9.215,7.182 0.75040522,0.75040522 0 1 0 1.456,-0.364 C 20.473,3.5390009 16.15,9.0658035e-7 11,9.0658035e-7 A 10.995,10.995 0 0 0 1.5,5.4520009 v -1.702 a 0.75,0.75 0 0 0 -1.5,0 v 3.75 a 1,1 0 0 0 1,1 h 3.75 a 0.75,0.75 0 0 0 0,-1.5 z M 1.785,13.318001 a 0.75,0.75 0 0 0 -1.455,0.364 c 1.197,4.779 5.52,8.318 10.67,8.318 4.052,0 7.592,-2.191 9.5,-5.451 v 1.701 a 0.75,0.75 0 0 0 1.5,0 v -3.75 a 1,1 0 0 0 -1,-1 h -3.75 a 0.75,0.75 0 0 0 0,1.5 h 2.37 a 9.502,9.502 0 0 1 -8.62,5.5 c -4.446,0 -8.181,-3.055 -9.215,-7.182 z"
     id="path1" />
</svg>
