<?xml version="1.0" encoding="UTF-8" standalone="no"?>
<!-- Uploaded to: SVG Repo, www.svgrepo.com, Generator: SVG Repo Mixer Tools -->

<svg
   fill="#000000"
   width="633.33331"
   height="700"
   viewBox="0 0 18.999999 21"
   version="1.1"
   id="svg1"
   sodipodi:docname="sign-out.svg"
   inkscape:version="1.3.2 (091e20ef0f, 2023-11-25)"
   xmlns:inkscape="http://www.inkscape.org/namespaces/inkscape"
   xmlns:sodipodi="http://sodipodi.sourceforge.net/DTD/sodipodi-0.dtd"
   xmlns="http://www.w3.org/2000/svg"
   xmlns:svg="http://www.w3.org/2000/svg">
  <defs
     id="defs1" />
  <sodipodi:namedview
     id="namedview1"
     pagecolor="#ffffff"
     bordercolor="#000000"
     borderopacity="0.25"
     inkscape:showpageshadow="2"
     inkscape:pageopacity="0.0"
     inkscape:pagecheckerboard="0"
     inkscape:deskcolor="#d1d1d1"
     inkscape:zoom="1.00625"
     inkscape:cx="300.12422"
     inkscape:cy="350.31056"
     inkscape:window-width="1920"
     inkscape:window-height="1011"
     inkscape:window-x="0"
     inkscape:window-y="0"
     inkscape:window-maximized="1"
     inkscape:current-layer="svg1" />
  <path
     fill-rule="evenodd"
     d="M 0,1.75 C 0,0.784 0.784,0 1.75,0 h 5.5 a 0.75,0.75 0 0 1 0,1.5 H 1.75 A 0.25,0.25 0 0 0 1.5,1.75 v 17.5 c 0,0.138 0.112,0.25 0.25,0.25 h 5.5 a 0.75,0.75 0 0 1 0,1.5 H 1.75 A 1.75,1.75 0 0 1 0,19.25 Z m 9.994,9.5 3.3,3.484 a 0.75,0.75 0 0 1 -1.088,1.032 l -4.5,-4.75 a 0.75,0.75 0 0 1 0,-1.032 l 4.5,-4.75 a 0.75,0.75 0 0 1 1.088,1.032 l -3.3,3.484 h 8.256 a 0.75,0.75 0 0 1 0,1.5 z"
     id="path1" />
</svg>
