<?xml version="1.0" encoding="UTF-8" standalone="no"?>
<!-- Uploaded to: SVG Repo, www.svgrepo.com, Generator: SVG Repo Mixer Tools -->

<svg
   fill="#000000"
   width="666.66736"
   height="758.33331"
   viewBox="0 0 20.000021 22.749999"
   version="1.1"
   id="svg1"
   sodipodi:docname="stopwatch.svg"
   inkscape:version="1.3.2 (091e20ef0f, 2023-11-25)"
   xmlns:inkscape="http://www.inkscape.org/namespaces/inkscape"
   xmlns:sodipodi="http://sodipodi.sourceforge.net/DTD/sodipodi-0.dtd"
   xmlns="http://www.w3.org/2000/svg"
   xmlns:svg="http://www.w3.org/2000/svg">
  <defs
     id="defs1" />
  <sodipodi:namedview
     id="namedview1"
     pagecolor="#ffffff"
     bordercolor="#000000"
     borderopacity="0.25"
     inkscape:showpageshadow="2"
     inkscape:pageopacity="0.0"
     inkscape:pagecheckerboard="0"
     inkscape:deskcolor="#d1d1d1"
     inkscape:zoom="1.00625"
     inkscape:cx="333.91304"
     inkscape:cy="400"
     inkscape:window-width="1920"
     inkscape:window-height="1011"
     inkscape:window-x="0"
     inkscape:window-y="0"
     inkscape:window-maximized="1"
     inkscape:current-layer="svg1" />
  <path
     fill-rule="evenodd"
     d="m 8.2500107,0 a 0.75,0.75 0 0 0 0,1.5 h 1 v 1.278 a 9.955,9.955 0 0 0 -5.635,2.276 l -1.335,-1.334 a 0.75,0.75 0 0 0 -1.06,1.06 l 1.315,1.316 A 9.962,9.962 0 0 0 1.0738193e-5,12.75 c 0,5.523 4.476999961807,10 10.000000261807,10 5.523,0 10,-4.477 10,-10 a 9.962,9.962 0 0 0 -2.535,-6.654 l 1.315,-1.316 a 0.75,0.75 0 0 0 -1.06,-1.06 l -1.334,1.334 a 9.955,9.955 0 0 0 -5.636,-2.276 V 1.5 h 1 a 0.75,0.75 0 0 0 0,-1.5 z m 1.7500003,21.25 a 8.5,8.5 0 1 0 0,-17 8.5,8.5 0 0 0 0,17 z m 4.03,-12.53 a 0.75,0.75 0 0 1 0,1.06 l -2.381,2.382 a 1.75,1.75 0 1 1 -1.06,-1.06 l 2.38,-2.382 a 0.75,0.75 0 0 1 1.061,0 z"
     id="path1" />
</svg>
