<?xml version="1.0" encoding="UTF-8" standalone="no"?>
<!-- Uploaded to: SVG Repo, www.svgrepo.com, Generator: SVG Repo Mixer Tools -->

<svg
   fill="#000000"
   width="666.66669"
   height="750"
   viewBox="0 0 20.000001 22.5"
   version="1.1"
   id="svg3"
   sodipodi:docname="trash.svg"
   inkscape:version="1.3.2 (091e20ef0f, 2023-11-25)"
   xmlns:inkscape="http://www.inkscape.org/namespaces/inkscape"
   xmlns:sodipodi="http://sodipodi.sourceforge.net/DTD/sodipodi-0.dtd"
   xmlns="http://www.w3.org/2000/svg"
   xmlns:svg="http://www.w3.org/2000/svg">
  <defs
     id="defs3" />
  <sodipodi:namedview
     id="namedview3"
     pagecolor="#ffffff"
     bordercolor="#000000"
     borderopacity="0.25"
     inkscape:showpageshadow="2"
     inkscape:pageopacity="0.0"
     inkscape:pagecheckerboard="0"
     inkscape:deskcolor="#d1d1d1"
     inkscape:zoom="1.00625"
     inkscape:cx="333.91304"
     inkscape:cy="320.49689"
     inkscape:window-width="1920"
     inkscape:window-height="1011"
     inkscape:window-x="0"
     inkscape:window-y="0"
     inkscape:window-maximized="1"
     inkscape:current-layer="svg3" />
  <path
     fill-rule="evenodd"
     d="M 14,1.75 V 3 h 5.25 a 0.75,0.75 0 0 1 0,1.5 H 0.75 A 0.75,0.75 0 0 1 0.75,3 H 6 V 1.75 C 6,0.784 6.784,0 7.75,0 h 4.5 C 13.216,0 14,0.784 14,1.75 Z m -6.5,0 A 0.25,0.25 0 0 1 7.75,1.5 h 4.5 A 0.25,0.25 0 0 1 12.5,1.75 V 3 h -5 z"
     id="path1" />
  <path
     d="M 2.997,6.178 A 0.75,0.75 0 1 0 1.504,6.322 L 2.916,20.92 a 1.75,1.75 0 0 0 1.742,1.58 h 10.684 a 1.75,1.75 0 0 0 1.742,-1.581 L 18.497,6.322 A 0.75046186,0.75046186 0 0 0 17.003,6.178 L 15.591,20.774 A 0.25,0.25 0 0 1 15.342,21 H 4.658 A 0.25,0.25 0 0 1 4.409,20.774 Z"
     id="path2" />
  <path
     d="m 7.206,7.501 a 0.75,0.75 0 0 1 0.793,0.705 l 0.5,8.5 A 0.75079042,0.75079042 0 1 1 7,16.794 L 6.5,8.294 A 0.75,0.75 0 0 1 7.205,7.501 Z m 6.293,0.793 A 0.75079042,0.75079042 0 1 0 12,8.206 l -0.5,8.5 a 0.75029128,0.75029128 0 0 0 1.498,0.088 l 0.5,-8.5 z"
     id="path3" />
</svg>
