<?xml version="1.0" encoding="UTF-8" standalone="no"?>
<!-- Uploaded to: SVG Repo, www.svgrepo.com, Generator: SVG Repo Mixer Tools -->

<svg
   fill="#000000"
   width="800"
   height="688.56665"
   viewBox="0 0 24 20.657"
   version="1.1"
   id="svg3"
   sodipodi:docname="user.svg"
   inkscape:version="1.3.2 (091e20ef0f, 2023-11-25)"
   xmlns:inkscape="http://www.inkscape.org/namespaces/inkscape"
   xmlns:sodipodi="http://sodipodi.sourceforge.net/DTD/sodipodi-0.dtd"
   xmlns="http://www.w3.org/2000/svg"
   xmlns:svg="http://www.w3.org/2000/svg">
  <defs
     id="defs3" />
  <sodipodi:namedview
     id="namedview3"
     pagecolor="#ffffff"
     bordercolor="#000000"
     borderopacity="0.25"
     inkscape:showpageshadow="2"
     inkscape:pageopacity="0.0"
     inkscape:pagecheckerboard="0"
     inkscape:deskcolor="#d1d1d1"
     inkscape:zoom="1.00625"
     inkscape:cx="400.49689"
     inkscape:cy="366.21118"
     inkscape:window-width="1920"
     inkscape:window-height="1011"
     inkscape:window-x="0"
     inkscape:window-y="0"
     inkscape:window-maximized="1"
     inkscape:current-layer="svg3" />
  <path
     d="M 0,12 C 0,5.373 5.373,0 12,0 18.627,0 24,5.373 24,12 v 8.657 a 0.75,0.75 0 0 1 -1.5,0 V 12 C 22.5,6.201 17.799,1.5 12,1.5 6.201,1.5 1.5,6.201 1.5,12 v 8.657 a 0.75,0.75 0 0 1 -1.5,0 z"
     id="path1" />
  <path
     d="M 8,18.75 A 0.75,0.75 0 0 1 8.75,18 h 6.5 a 0.75,0.75 0 0 1 0,1.5 H 8.75 A 0.75,0.75 0 0 1 8,18.75 Z"
     id="path2" />
  <path
     fill-rule="evenodd"
     d="M 5.25,8.5 A 1.75,1.75 0 0 0 3.5,10.25 v 3.5 c 0,0.966 0.784,1.75 1.75,1.75 h 13.5 a 1.75,1.75 0 0 0 1.75,-1.75 v -3.5 A 1.75,1.75 0 0 0 18.75,8.5 Z m 0.22,1.47 a 0.75,0.75 0 0 1 1.06,0 L 9,12.44 11.47,9.97 a 0.75,0.75 0 0 1 1.06,0 L 15,12.44 17.47,9.97 a 0.75,0.75 0 1 1 1.06,1.06 l -3,3 a 0.75,0.75 0 0 1 -1.06,0 L 12,11.56 9.53,14.03 a 0.75,0.75 0 0 1 -1.06,0 l -3,-3 a 0.75,0.75 0 0 1 0,-1.06 z"
     id="path3" />
</svg>
