<?xml version="1.0" encoding="UTF-8" standalone="no"?>
<!-- Created with Inkscape (http://www.inkscape.org/) -->

<svg
   width="134.56989mm"
   height="26.006641mm"
   viewBox="0 0 134.56989 26.006641"
   version="1.1"
   id="svg1"
   xmlns="http://www.w3.org/2000/svg"
   xmlns:svg="http://www.w3.org/2000/svg">
  <defs
     id="defs1" />
  <g
     id="layer1"
     transform="translate(-41.244225,-100.50404)">
    <path
       d="m 58.235238,114.95218 v -13.40786 h 1.040253 v 13.40786 q 0,2.19611 -1.733763,3.7565 -1.733788,1.56042 -4.161062,1.56042 -2.427298,0 -4.161061,-1.56042 -1.733787,-1.56039 -1.733787,-3.7565 v -13.40786 h 1.040278 v 13.40786 q 0,1.76266 1.415919,3.01967 1.430345,1.25697 3.438651,1.25697 2.008283,0 3.424202,-1.25697 1.43037,-1.25701 1.43037,-3.01967 z m 2.08053,0 v -13.40786 h 1.040253 v 13.40786 q 0,1.5026 -0.635711,2.87517 -0.635712,1.35812 -1.704888,2.35505 -1.069153,0.99693 -2.542871,1.58929 -1.473694,0.57793 -3.091885,0.57793 -1.61819,0 -3.091908,-0.57793 -1.473694,-0.59236 -2.542871,-1.58929 -1.069152,-0.99693 -1.704864,-2.35505 -0.635736,-1.37257 -0.635736,-2.87517 v -13.40786 h 1.040278 v 13.40786 q 0,1.71931 0.92468,3.19303 0.93913,1.45928 2.528421,2.31171 1.603741,0.85243 3.482,0.85243 1.87826,0 3.467552,-0.85243 1.60374,-0.85243 2.528421,-2.31171 0.939129,-1.47372 0.939129,-3.19303 z m 2.080531,0 v -13.40786 h 1.040253 v 13.40786 q 0,1.92159 -0.809083,3.68428 -0.794658,1.74821 -2.138329,3.01965 -1.343671,1.27143 -3.207482,2.02274 -1.86381,0.75131 -3.900992,0.75131 -2.037181,0 -3.900991,-0.75131 -1.86381,-0.75131 -3.207482,-2.02274 -1.343696,-1.27144 -2.152779,-3.01965 -0.794657,-1.76269 -0.794657,-3.68428 v -13.40786 h 1.040277 v 13.40786 q 0,2.28281 1.213649,4.23329 1.213624,1.93606 3.279705,3.07745 2.08053,1.12696 4.522278,1.12696 2.441724,0 4.507805,-1.12696 2.08053,-1.14139 3.29418,-3.07745 1.213648,-1.95048 1.213648,-4.23329 z m 2.080531,0 v -13.40786 h 1.040253 v 13.40786 q 0,3.12079 -1.632641,5.7937 -1.63264,2.65845 -4.435555,4.21884 -2.788491,1.54596 -6.068221,1.54596 -3.279729,0 -6.08267,-1.54596 -2.78849,-1.56039 -4.42113,-4.21884 -1.63264,-2.67291 -1.63264,-5.7937 v -13.40786 h 1.040278 v 13.40786 q 0,2.12386 0.881331,4.07436 0.881331,1.95051 2.369499,3.36641 1.488143,1.40147 3.539774,2.23948 2.066082,0.83797 4.305558,0.83797 2.239453,0 4.291084,-0.83797 2.066081,-0.83801 3.554249,-2.23948 1.488144,-1.4159 2.3695,-3.36641 0.881331,-1.9505 0.881331,-4.07436 z m 13.364515,-4.04549 h -1.748213 q -1.112526,0 -1.603765,-0.56346 -0.491216,-0.57793 -0.491216,-1.51706 0,-2.08054 3.106335,-2.08054 2.918537,0 4.392231,0.86688 l -0.837982,0.63574 q -1.011378,-0.46234 -3.554249,-0.46234 -1.242524,0 -1.67599,0.2745 -0.41899,0.27451 -0.41899,0.76576 0,0.49123 0.231046,0.76575 0.231047,0.27452 0.852457,0.27452 h 1.791562 q 1.950484,0 3.5109,0.66461 1.574841,0.66461 2.586195,1.82047 1.011378,1.14139 1.545967,2.64398 0.534563,1.48817 0.534563,3.19306 0,1.38703 -0.390092,2.62955 -0.390091,1.24255 -1.184749,2.2828 -0.780184,1.04028 -1.892709,1.80603 -1.098053,0.75129 -2.629544,1.17031 -1.517069,0.43343 -3.29418,0.43343 -2.78849,0 -5.230214,-0.85245 -2.427298,-0.83799 -4.045488,-2.35503 l 0.838006,-0.62128 q 1.473695,1.32922 3.684272,2.06608 2.225002,0.7224 4.753424,0.7224 1.979383,0 3.568698,-0.56346 1.603742,-0.57793 2.629545,-1.57486 1.040277,-0.99691 1.589291,-2.3117 0.563488,-1.31477 0.563488,-2.83182 0,-2.0083 -0.809108,-3.62649 -0.809083,-1.63264 -2.470622,-2.644 -1.64709,-1.01138 -3.900993,-1.01138 z m -1.748213,1.04028 h 1.647065 q 2.932988,0 4.580078,1.79156 1.661514,1.79157 1.661514,4.45003 0,2.70179 -1.921584,4.47891 -1.921609,1.76269 -5.38916,1.76269 -2.3117,0 -4.319983,-0.63574 -2.008307,-0.63572 -3.337529,-1.79156 l 0.809107,-0.65016 q 1.184751,0.96802 2.976313,1.50259 1.806011,0.53459 3.872092,0.53459 3.04856,0 4.652301,-1.45927 1.61819,-1.45924 1.61819,-3.74205 0,-2.25392 -1.358121,-3.72762 -1.343672,-1.47371 -3.857667,-1.47371 h -1.632616 q -2.109429,0 -3.164157,-1.15586 -1.054703,-1.15584 -1.054703,-3.0052 0,-1.84937 1.300323,-3.00521 1.314772,-1.15586 3.929891,-1.15586 1.83491,0 3.409752,0.43344 1.574867,0.419 2.60067,1.21365 l -0.823533,0.63571 q -1.806012,-1.24252 -5.186889,-1.24252 -2.181654,0 -3.193032,0.86689 -0.996929,0.85243 -0.996929,2.2539 0,1.41591 0.736859,2.26834 0.751309,0.85246 2.441748,0.85246 z m 0,2.08054 h 1.589291 q 2.10943,0 3.164132,1.17029 1.054703,1.17031 1.054703,2.99076 0,1.84936 -1.314772,3.00522 -1.300322,1.15584 -3.915441,1.15584 -1.834911,0 -3.424202,-0.41901 -1.574841,-0.43345 -2.600669,-1.22808 l 0.823556,-0.63571 q 1.806012,1.24253 5.201315,1.24253 2.181678,0 3.178582,-0.85243 1.011378,-0.86688 1.011378,-2.26836 0,-1.40147 -0.751309,-2.25392 -0.751308,-0.86689 -2.441722,-0.86689 h -1.574842 q -2.961887,0 -4.63785,-1.76266 -1.66154,-1.77713 -1.66154,-4.47892 0,-2.7018 1.921584,-4.46449 1.921608,-1.77711 5.38916,-1.77711 2.311701,0 4.305558,0.63572 2.008282,0.63573 3.337504,1.79158 l -0.809083,0.65016 q -1.18475,-0.96803 -2.976336,-1.50261 -1.791562,-0.53457 -3.857643,-0.53457 -3.04856,0 -4.66675,1.45924 -1.603742,1.45928 -1.603742,3.74208 0,2.26834 1.358122,3.74206 1.358145,1.45928 3.901016,1.45928 z m 0,2.08052 h 1.589291 q 1.112502,0 1.603741,0.57791 0.49124,0.57795 0.49124,1.50262 0,2.08054 -3.106359,2.08054 -2.932962,0 -4.406681,-0.86691 l 0.837983,-0.63571 q 1.011378,0.46234 3.568698,0.46234 1.242549,0 1.661539,-0.27453 0.433441,-0.27449 0.433441,-0.76573 0,-0.47679 -0.245595,-0.75131 -0.231047,-0.28896 -0.866881,-0.28896 h -1.560392 q -1.993857,0 -3.612048,-0.65017 -1.603741,-0.65016 -2.643994,-1.79155 -1.025828,-1.14141 -1.574866,-2.64402 -0.549013,-1.5026 -0.549013,-3.23638 0,-1.38702 0.390091,-2.62955 0.390092,-1.24255 1.170301,-2.28282 0.794657,-1.04026 1.892709,-1.79157 1.112501,-0.76576 2.629544,-1.18475 1.531517,-0.43344 3.308629,-0.43344 2.788491,0 5.215789,0.85243 2.427274,0.83801 4.045464,2.35505 l -0.837983,0.62129 q -1.473718,-1.32925 -3.68427,-2.05165 -2.210578,-0.73684 -4.739,-0.73684 -1.979382,0 -3.583124,0.57791 -1.58929,0.56349 -2.629568,1.56039 -1.025828,0.99693 -1.589291,2.3117 -0.549038,1.3148 -0.549038,2.83185 0,2.03717 0.823556,3.66981 0.823534,1.63264 2.513973,2.62957 1.690438,0.98248 4.002139,0.98248 z m 18.508031,-14.56371 h 1.040278 v 23.92608 h -1.040278 z m -2.080531,0 h 1.040278 v 23.92608 h -1.040278 z m -2.08053,0 h 1.040278 v 23.92608 h -1.040278 z m -2.080531,0 h 1.040277 v 23.92608 h -1.040277 z m 28.087179,8.17763 -0.85244,0.56348 q -0.7802,-1.15584 -2.0372,-1.82046 -1.24253,-0.67906 -2.70179,-0.67906 -2.3695,0 -4.04547,1.67596 -1.67599,1.67599 -1.67599,4.04549 0,2.3695 1.67599,4.04547 1.67597,1.67599 4.04547,1.67599 1.45926,0 2.70179,-0.67906 1.257,-0.67906 2.0372,-1.83492 l 0.83799,0.60681 q -0.92469,1.35815 -2.3984,2.15279 -1.47369,0.79466 -3.17858,0.79466 -1.37257,0 -2.62955,-0.53459 -1.24254,-0.53459 -2.15278,-1.44483 -0.91023,-0.91023 -1.44481,-2.15275 -0.5346,-1.257 -0.5346,-2.62957 0,-1.37257 0.5346,-2.61512 0.53458,-1.25697 1.44481,-2.1672 0.91024,-0.91023 2.15278,-1.44482 1.25698,-0.53459 2.62955,-0.53459 1.71934,0 3.19303,0.80911 1.47371,0.79463 2.3984,2.16721 z m 1.71933,-1.18476 -0.8669,0.5635 q -1.06916,-1.5604 -2.77405,-2.47063 -1.6904,-0.92468 -3.66981,-0.92468 -2.12388,0 -3.91544,1.0547 -1.79157,1.04028 -2.8463,2.83184 -1.04024,1.79157 -1.04024,3.91544 0,2.12389 1.04024,3.91544 1.05473,1.79157 2.8463,2.8463 1.79156,1.04025 3.91544,1.04025 1.97941,0 3.68426,-0.92468 1.70489,-0.92468 2.77405,-2.49952 l 0.85245,0.59236 q -1.21364,1.79159 -3.1497,2.83184 -1.92161,1.04027 -4.16106,1.04027 -2.39838,0 -4.43559,-1.18474 -2.03717,-1.18476 -3.22193,-3.22193 -1.18475,-2.03719 -1.18475,-4.43559 0,-2.3984 1.18475,-4.43557 1.18476,-2.03719 3.22193,-3.22194 2.03721,-1.18475 4.43559,-1.18475 2.23945,0 4.16106,1.04028 1.93606,1.04025 3.1497,2.83181 z m 1.73377,-1.15584 -0.86688,0.56348 q -1.35812,-1.99383 -3.52536,-3.14968 -2.15277,-1.1703 -4.65229,-1.1703 -2.00829,0 -3.84319,0.78018 -1.83492,0.78021 -3.16417,2.10944 -1.31477,1.31476 -2.09495,3.1497 -0.78021,1.83491 -0.78021,3.84319 0,2.00829 0.78021,3.84319 0.78018,1.83492 2.09495,3.16417 1.32925,1.31477 3.16417,2.09497 1.8349,0.78019 3.84319,0.78019 2.51397,0 4.66674,-1.17031 2.15279,-1.17029 3.51091,-3.16413 l 0.83798,0.62127 q -1.50259,2.19613 -3.88654,3.48199 -2.3695,1.27146 -5.12909,1.27146 -2.96186,0 -5.47583,-1.45927 -2.51398,-1.47373 -3.9877,-3.9877 -1.459266,-2.51396 -1.459266,-5.47583 0,-2.96186 1.459266,-5.47583 1.47372,-2.51399 3.9877,-3.97324 2.51397,-1.47372 5.47583,-1.47372 2.77404,0 5.15799,1.30035 2.38395,1.28587 3.88654,3.49643 z m 1.70489,-1.18473 -0.86691,0.56346 q -1.64706,-2.41282 -4.26219,-3.81429 -2.60067,-1.40147 -5.62032,-1.40147 -2.42728,0 -4.6523,0.95358 -2.21056,0.9391 -3.8143,2.54287 -1.60374,1.60374 -2.557319,3.82874 -0.93913,2.21055 -0.93913,4.63785 0,2.42728 0.93913,4.6523 0.953579,2.21056 2.557319,3.8143 1.60374,1.60374 3.8143,2.55732 2.22502,0.93912 4.6523,0.93912 3.01965,0 5.63477,-1.41591 2.6151,-1.41592 4.26219,-3.82874 l 0.83801,0.63571 q -1.79159,2.60067 -4.6234,4.13216 -2.83184,1.51706 -6.11157,1.51706 -2.644,0 -5.05685,-1.04028 -2.3984,-1.02579 -4.14661,-2.75958 -1.733786,-1.74822 -2.774039,-4.14661 -1.025828,-2.41285 -1.025828,-5.05685 0,-2.64402 1.025828,-5.04239 1.040253,-2.41285 2.774039,-4.14661 1.74821,-1.74824 4.14661,-2.77404 2.41285,-1.04028 5.05685,-1.04028 3.29418,0 6.12602,1.53152 2.83181,1.53149 4.6234,4.16106 z m 12.32424,12.25201 0.41901,-1.04028 h 3.55422 l 0.41899,1.04028 z m -0.80909,2.08054 0.40454,-1.04028 h 5.18689 l 0.44789,1.04028 z m -0.8091,2.08052 0.40456,-1.04028 h 6.8195 l 0.43344,1.04028 z m -8.45215,2.86071 h -1.12696 l 9.46353,-23.92608 h 1.12696 l 9.44907,23.92608 h -1.11251 l -8.90006,-22.52461 z m 9.03008,-20.05399 0.59236,1.32922 -7.39744,18.72477 h -1.1125 z m 1.15585,2.74515 0.54902,1.43036 -6.25602,15.87848 h -1.12698 z m 1.09805,2.86073 0.54904,1.45924 -5.12909,12.98887 h -1.1125 z m 14.347,14.44811 h -1.12696 l -9.44906,-23.92608 h 1.11249 z m -11.70298,-23.92608 9.46353,23.92608 h -1.11251 l -9.46355,-23.92608 z m -2.23947,0 9.46352,23.92608 h -1.12695 l -9.44908,-23.92608 z m 32.9851,15.19942 1.04024,-1.96495 v 10.69161 h -1.04024 z m 2.08052,-3.98769 1.04026,-1.96493 v 14.67928 h -1.04026 z m 2.08053,-3.92988 1.04025,-1.97939 v 18.62362 h -1.04025 z m -6.97845,7.42634 -0.59238,-1.08361 7.16627,-13.62458 h 1.17029 z m -1.1992,-2.26835 -0.60681,-1.09806 6.01042,-11.34178 h 1.18475 z m -6.964,0.91022 1.04028,1.96494 v 8.61108 h -1.04028 z m -2.08054,-3.95879 1.04028,1.96496 v 12.56985 h -1.04028 z m -2.08052,-3.95879 1.04028,1.97941 v 16.51419 h -1.04028 z m 8.40882,12.25202 h -1.1703 l -8.27878,-15.70512 v 21.9467 h -1.04027 v -23.92608 h 1.1703 z m 2.35505,0 h -1.18475 l -9.3046,-17.6845 h 1.18475 z m 10.61937,-15.70512 -8.2788,15.70512 h -1.18473 l -9.29014,-17.6845 h 1.17029 l 8.72667,16.58644 8.71222,-16.58644 h 1.18475 v 23.92608 h -1.04026 z"
       id="text1"
       style="font-family:Monoton;-inkscape-font-specification:Monoton;white-space:pre;fill:#ffffff;stroke-width:2.46581"
       aria-label="USICAM" />
  </g>
</svg>
